<svg id="svg" version="1.1" xmlns="http://www.w3.org/2000/svg" xmlns:xlink="http://www.w3.org/1999/xlink" width="400" height="78.98525882756257" viewBox="0, 0, 400,78.98525882756257"><g id="svgg"><path id="path0" d="M25.833 0.199 C 25.604 0.288,25.004 0.382,24.500 0.409 C 23.996 0.437,23.256 0.549,22.855 0.658 C 22.455 0.767,21.911 0.863,21.647 0.870 C 21.383 0.878,21.167 0.945,21.167 1.020 C 21.167 1.095,21.054 1.113,20.917 1.060 C 20.779 1.008,20.667 1.044,20.667 1.141 C 20.667 1.239,20.404 1.367,20.083 1.428 C 19.762 1.488,19.500 1.601,19.500 1.680 C 19.500 1.759,19.387 1.780,19.250 1.727 C 19.112 1.674,19.000 1.718,19.000 1.825 C 19.000 1.932,18.930 1.977,18.845 1.924 C 18.760 1.871,18.642 1.905,18.583 2.000 C 18.525 2.095,18.402 2.126,18.309 2.069 C 18.217 2.012,17.960 2.136,17.738 2.345 C 17.515 2.554,17.333 2.636,17.333 2.527 C 17.333 2.411,17.058 2.503,16.670 2.748 C 16.305 2.978,15.931 3.167,15.838 3.167 C 15.745 3.167,15.471 3.390,15.228 3.662 C 14.985 3.934,14.722 4.118,14.643 4.069 C 14.564 4.020,14.500 4.064,14.500 4.167 C 14.500 4.269,14.425 4.307,14.333 4.250 C 14.242 4.193,14.167 4.217,14.167 4.303 C 14.167 4.389,13.942 4.553,13.667 4.667 C 13.392 4.781,13.167 4.944,13.167 5.030 C 13.167 5.116,13.105 5.148,13.030 5.102 C 12.955 5.056,12.642 5.310,12.333 5.667 C 12.025 6.024,11.726 6.286,11.668 6.251 C 11.538 6.170,10.645 6.922,10.645 7.112 C 10.645 7.188,10.537 7.228,10.406 7.201 C 10.274 7.174,10.157 7.230,10.146 7.326 C 10.134 7.422,10.114 7.594,10.100 7.708 C 10.087 7.823,9.946 7.895,9.788 7.868 C 9.596 7.835,9.500 7.928,9.500 8.148 C 9.500 8.331,9.352 8.525,9.167 8.583 C 8.860 8.681,8.757 8.869,8.818 9.221 C 8.831 9.296,8.773 9.316,8.690 9.264 C 8.503 9.149,8.126 9.571,8.279 9.724 C 8.340 9.784,8.245 9.834,8.069 9.836 C 7.802 9.838,7.791 9.865,8.000 10.000 C 8.137 10.089,8.168 10.163,8.067 10.164 C 7.752 10.169,7.215 10.739,7.298 10.982 C 7.341 11.109,7.308 11.171,7.225 11.119 C 7.049 11.011,6.278 12.070,6.278 12.419 C 6.278 12.547,6.217 12.615,6.144 12.569 C 6.070 12.524,5.962 12.677,5.903 12.910 C 5.845 13.143,5.718 13.333,5.621 13.333 C 5.524 13.333,5.488 13.377,5.542 13.431 C 5.595 13.484,5.486 13.680,5.300 13.867 C 5.045 14.122,5.012 14.238,5.169 14.335 C 5.317 14.426,5.273 14.497,5.020 14.577 C 4.823 14.640,4.705 14.761,4.758 14.847 C 4.812 14.933,4.698 15.203,4.506 15.447 C 4.285 15.728,4.215 15.949,4.316 16.049 C 4.416 16.150,4.366 16.324,4.179 16.525 C 3.880 16.846,3.500 17.893,3.500 18.394 C 3.500 18.544,3.426 18.667,3.335 18.667 C 3.245 18.667,3.175 18.835,3.180 19.042 C 3.193 19.555,3.075 20.243,2.936 20.469 C 2.873 20.571,2.788 20.939,2.748 21.286 C 2.707 21.633,2.610 22.304,2.531 22.778 C 2.412 23.490,2.388 28.219,2.502 28.500 C 2.520 28.546,2.522 28.790,2.505 29.042 C 2.488 29.294,2.556 29.500,2.654 29.500 C 2.753 29.500,2.833 29.579,2.833 29.677 C 2.833 29.774,2.765 29.811,2.682 29.759 C 2.598 29.708,2.636 30.097,2.766 30.624 C 2.895 31.152,3.083 31.995,3.183 32.499 C 3.283 33.003,3.438 33.552,3.528 33.718 C 3.693 34.027,3.849 34.583,3.874 34.958 C 3.882 35.073,3.951 35.167,4.028 35.167 C 4.104 35.167,4.151 35.223,4.132 35.292 C 4.114 35.360,4.264 35.782,4.466 36.230 C 4.668 36.677,4.833 37.094,4.833 37.156 C 4.833 37.219,5.000 37.449,5.203 37.668 C 5.407 37.886,5.586 38.153,5.602 38.262 C 5.678 38.776,5.872 39.162,6.012 39.076 C 6.147 38.992,6.244 39.343,6.186 39.708 C 6.176 39.777,6.224 39.833,6.294 39.833 C 6.364 39.833,6.604 40.129,6.827 40.490 C 7.050 40.850,7.304 41.101,7.392 41.047 C 7.480 40.993,7.504 41.025,7.446 41.119 C 7.325 41.314,7.959 42.105,8.185 42.042 C 8.266 42.019,8.321 42.056,8.307 42.125 C 8.260 42.349,8.531 42.834,8.660 42.754 C 8.728 42.712,8.871 42.866,8.976 43.098 C 9.082 43.329,9.243 43.473,9.334 43.416 C 9.425 43.360,9.500 43.436,9.500 43.586 C 9.500 43.938,10.492 44.932,10.780 44.868 C 10.901 44.841,11.000 44.894,11.000 44.985 C 11.000 45.077,11.187 45.339,11.417 45.568 C 11.646 45.797,11.834 45.895,11.836 45.784 C 11.838 45.650,11.887 45.659,11.985 45.814 C 12.150 46.075,12.133 46.218,11.855 46.897 C 11.747 47.161,11.703 47.517,11.757 47.689 C 11.811 47.860,11.776 48.000,11.678 48.000 C 11.580 48.000,11.500 48.146,11.500 48.323 C 11.500 48.501,11.432 48.689,11.348 48.741 C 11.207 48.828,10.935 50.023,11.000 50.271 C 11.016 50.330,10.945 50.431,10.843 50.494 C 10.741 50.557,10.641 50.846,10.621 51.137 C 10.600 51.428,10.519 51.666,10.441 51.666 C 10.362 51.667,10.341 51.779,10.394 51.917 C 10.446 52.054,10.409 52.167,10.310 52.167 C 10.212 52.167,10.172 52.274,10.223 52.406 C 10.273 52.537,10.225 52.682,10.116 52.726 C 9.972 52.784,9.970 52.811,10.109 52.820 C 10.338 52.836,10.202 53.500,9.971 53.500 C 9.884 53.500,9.857 53.570,9.910 53.655 C 9.962 53.740,9.924 53.861,9.825 53.922 C 9.725 53.983,9.684 54.139,9.733 54.267 C 9.783 54.395,9.750 54.500,9.661 54.500 C 9.573 54.500,9.500 54.579,9.500 54.677 C 9.500 54.774,9.594 54.806,9.708 54.747 C 9.823 54.689,9.772 54.759,9.596 54.903 C 9.419 55.046,9.324 55.213,9.386 55.275 C 9.447 55.336,9.414 55.487,9.311 55.610 C 9.209 55.733,9.182 55.833,9.250 55.833 C 9.318 55.833,9.279 55.948,9.163 56.087 C 9.047 56.227,9.001 56.390,9.060 56.449 C 9.119 56.508,9.057 56.726,8.921 56.934 C 8.785 57.141,8.656 57.547,8.634 57.835 C 8.612 58.123,8.542 58.391,8.478 58.430 C 8.414 58.470,8.310 58.820,8.245 59.209 C 8.181 59.598,8.083 59.992,8.027 60.083 C 7.928 60.247,7.903 60.326,7.790 60.833 C 7.759 60.971,7.644 61.247,7.534 61.446 C 7.424 61.646,7.380 61.928,7.436 62.073 C 7.505 62.254,7.464 62.309,7.303 62.247 C 7.060 62.154,6.602 61.236,6.620 60.875 C 6.625 60.760,6.578 60.667,6.515 60.667 C 6.452 60.667,6.305 60.403,6.188 60.081 C 6.070 59.753,5.900 59.542,5.804 59.602 C 5.695 59.669,5.670 59.584,5.738 59.372 C 5.805 59.161,5.740 58.931,5.566 58.756 C 5.409 58.599,5.261 58.136,5.228 57.697 C 5.196 57.269,5.102 56.895,5.019 56.868 C 4.936 56.840,4.907 56.671,4.954 56.492 C 5.001 56.313,4.971 56.167,4.888 56.167 C 4.806 56.167,4.733 56.035,4.727 55.875 C 4.722 55.715,4.660 55.246,4.591 54.833 C 4.521 54.421,4.438 53.746,4.406 53.333 C 4.374 52.921,4.337 52.546,4.322 52.500 C 4.308 52.454,4.311 52.239,4.329 52.023 C 4.351 51.757,4.298 51.669,4.164 51.751 C 4.017 51.842,4.010 51.792,4.138 51.553 C 4.239 51.365,4.250 51.135,4.166 50.999 C 4.087 50.871,4.062 50.702,4.110 50.623 C 4.247 50.402,4.040 49.763,3.713 49.394 C 3.252 48.873,0.667 48.898,0.667 49.422 C 0.667 49.541,0.574 49.670,0.462 49.707 C 0.349 49.745,0.234 50.032,0.206 50.346 C 0.093 51.622,0.090 52.667,0.199 52.667 C 0.262 52.667,0.285 52.817,0.250 53.000 C 0.215 53.183,0.266 53.333,0.363 53.333 C 0.469 53.333,0.448 53.448,0.312 53.615 C 0.125 53.846,0.124 53.873,0.308 53.762 C 0.489 53.653,0.497 53.694,0.350 53.970 C 0.244 54.167,0.230 54.353,0.316 54.406 C 0.399 54.457,0.451 54.729,0.432 55.009 C 0.412 55.290,0.458 55.558,0.534 55.604 C 0.610 55.651,0.629 55.760,0.576 55.845 C 0.523 55.930,0.560 56.000,0.657 56.000 C 0.754 56.000,0.833 56.079,0.833 56.177 C 0.833 56.274,0.765 56.311,0.682 56.260 C 0.550 56.178,0.701 56.939,0.963 57.667 C 1.012 57.804,1.037 57.985,1.018 58.068 C 0.998 58.151,1.142 58.612,1.337 59.092 C 1.532 59.572,1.714 60.104,1.743 60.274 C 1.771 60.444,1.867 60.568,1.956 60.550 C 2.045 60.532,2.086 60.682,2.048 60.883 C 2.006 61.103,2.120 61.401,2.331 61.627 C 2.525 61.835,2.638 62.079,2.581 62.170 C 2.525 62.261,2.621 62.541,2.796 62.793 C 3.121 63.262,3.353 63.786,3.287 63.902 C 3.267 63.938,3.439 64.144,3.670 64.359 C 3.913 64.585,4.064 64.883,4.028 65.066 C 3.983 65.295,4.037 65.355,4.225 65.283 C 4.402 65.215,4.454 65.259,4.391 65.424 C 4.340 65.556,4.418 65.710,4.565 65.766 C 4.712 65.822,4.796 65.926,4.753 65.996 C 4.709 66.066,4.829 66.302,5.019 66.520 C 5.210 66.738,5.472 67.123,5.604 67.375 C 5.735 67.627,5.915 67.833,6.004 67.833 C 6.094 67.833,6.167 67.938,6.167 68.065 C 6.167 68.192,6.298 68.286,6.458 68.273 C 6.619 68.260,6.732 68.341,6.710 68.453 C 6.688 68.565,6.969 68.962,7.335 69.335 C 7.701 69.708,8.000 70.048,8.000 70.090 C 8.000 70.256,9.248 71.333,9.440 71.333 C 9.552 71.333,9.692 71.483,9.750 71.667 C 9.808 71.850,9.912 72.000,9.981 72.000 C 10.050 72.000,10.410 72.260,10.781 72.578 C 11.152 72.895,11.503 73.108,11.561 73.050 C 11.619 72.992,11.667 73.036,11.667 73.149 C 11.667 73.261,11.753 73.299,11.859 73.234 C 11.969 73.166,12.007 73.188,11.946 73.285 C 11.821 73.488,12.393 74.051,12.557 73.888 C 12.619 73.825,12.779 73.919,12.913 74.096 C 13.047 74.272,13.158 74.357,13.161 74.285 C 13.164 74.212,13.372 74.344,13.623 74.577 C 13.874 74.809,14.169 75.000,14.278 75.000 C 14.387 75.000,14.577 75.101,14.701 75.224 C 14.985 75.509,17.266 76.658,17.667 76.720 C 17.832 76.745,18.075 76.855,18.207 76.964 C 18.338 77.073,18.720 77.182,19.056 77.206 C 19.391 77.230,19.666 77.299,19.666 77.359 C 19.667 77.467,21.087 78.000,21.373 78.000 C 21.454 78.000,21.469 77.917,21.406 77.816 C 21.343 77.715,21.476 77.753,21.701 77.900 C 21.926 78.047,22.158 78.119,22.218 78.060 C 22.277 78.001,22.421 78.028,22.538 78.120 C 22.835 78.355,24.167 78.507,24.167 78.306 C 24.167 78.216,24.289 78.265,24.438 78.414 C 24.630 78.607,24.920 78.666,25.437 78.620 C 25.838 78.584,26.206 78.595,26.255 78.643 C 26.368 78.757,29.833 78.781,29.833 78.668 C 29.833 78.621,30.283 78.593,30.833 78.604 C 31.383 78.615,31.833 78.578,31.833 78.521 C 31.833 78.464,32.152 78.407,32.542 78.395 C 33.477 78.367,34.000 78.285,34.000 78.165 C 34.000 78.112,34.264 78.050,34.587 78.029 C 34.910 78.007,35.360 77.918,35.587 77.832 C 35.814 77.746,36.001 77.729,36.003 77.796 C 36.004 77.862,36.067 77.818,36.144 77.698 C 36.220 77.578,36.567 77.453,36.914 77.421 C 37.261 77.389,37.602 77.271,37.671 77.160 C 37.740 77.048,37.874 77.005,37.968 77.064 C 38.188 77.199,41.201 75.756,41.038 75.593 C 40.971 75.527,40.992 75.487,41.083 75.506 C 41.504 75.591,41.833 75.478,41.833 75.250 C 41.833 75.111,41.981 75.000,42.167 75.000 C 42.350 75.000,42.500 74.925,42.500 74.833 C 42.500 74.742,42.612 74.667,42.750 74.667 C 42.887 74.667,43.000 74.592,43.000 74.500 C 43.000 74.408,43.056 74.345,43.125 74.360 C 43.357 74.409,43.832 74.133,43.749 73.998 C 43.703 73.925,43.828 73.907,44.026 73.958 C 44.272 74.023,44.348 73.992,44.266 73.860 C 44.195 73.745,44.252 73.667,44.407 73.667 C 44.550 73.667,44.667 73.609,44.667 73.540 C 44.667 73.470,44.835 73.336,45.042 73.242 C 45.248 73.148,45.398 72.980,45.375 72.869 C 45.352 72.758,45.390 72.683,45.458 72.702 C 45.712 72.774,46.339 72.311,46.229 72.133 C 46.163 72.025,46.191 71.995,46.298 72.061 C 46.398 72.123,46.578 72.056,46.698 71.912 C 46.980 71.575,47.162 71.399,47.636 71.010 C 47.848 70.835,48.017 70.630,48.011 70.554 C 48.005 70.479,48.069 70.417,48.153 70.417 C 48.345 70.417,48.583 70.184,48.583 69.997 C 48.583 69.818,49.675 68.833,49.873 68.833 C 49.954 68.833,49.975 68.761,49.920 68.673 C 49.807 68.488,50.422 67.811,50.569 67.958 C 50.623 68.012,50.667 67.889,50.667 67.685 C 50.667 67.481,50.733 67.355,50.814 67.405 C 50.896 67.455,51.055 67.385,51.168 67.248 C 51.281 67.112,51.321 67.000,51.256 67.000 C 51.190 67.000,51.325 66.776,51.555 66.503 C 51.786 66.229,52.143 65.667,52.350 65.253 C 52.557 64.839,52.792 64.500,52.873 64.500 C 52.954 64.500,52.978 64.433,52.927 64.351 C 52.877 64.269,52.940 64.161,53.069 64.112 C 53.197 64.063,53.352 63.792,53.414 63.511 C 53.476 63.230,53.587 63.000,53.660 63.000 C 53.801 63.000,54.054 62.354,54.011 62.104 C 53.997 62.024,54.120 61.805,54.285 61.617 C 54.490 61.383,54.505 61.321,54.333 61.420 C 54.118 61.544,54.115 61.525,54.312 61.282 C 54.438 61.127,54.489 61.000,54.425 61.000 C 54.362 61.000,54.427 60.882,54.571 60.738 C 54.715 60.594,54.843 60.369,54.854 60.238 C 54.875 60.003,54.920 59.784,54.999 59.542 C 55.021 59.473,55.031 59.360,55.020 59.292 C 55.009 59.223,55.083 59.167,55.184 59.167 C 55.288 59.167,55.322 59.045,55.262 58.888 C 55.203 58.735,55.231 58.564,55.322 58.507 C 55.414 58.450,55.508 58.157,55.531 57.856 C 55.554 57.554,55.627 57.275,55.693 57.234 C 55.759 57.193,55.784 57.011,55.749 56.830 C 55.714 56.648,55.750 56.500,55.828 56.500 C 55.906 56.500,55.949 56.369,55.924 56.208 C 55.898 56.048,55.921 55.842,55.975 55.750 C 56.091 55.553,56.168 55.036,56.237 53.979 C 56.265 53.555,56.340 53.124,56.404 53.021 C 56.468 52.918,56.421 52.832,56.302 52.831 C 56.167 52.829,56.148 52.781,56.251 52.706 C 56.488 52.534,56.574 48.899,56.346 48.758 C 56.247 48.697,56.167 48.534,56.167 48.397 C 56.167 48.259,56.236 48.190,56.320 48.242 C 56.493 48.349,56.468 47.519,56.290 47.231 C 56.197 47.080,56.037 45.944,55.960 44.875 C 55.951 44.760,55.898 44.667,55.841 44.667 C 55.784 44.667,55.719 44.423,55.697 44.125 C 55.674 43.827,55.583 43.558,55.494 43.527 C 55.404 43.497,55.367 43.414,55.411 43.343 C 55.583 43.063,54.590 40.167,54.321 40.167 C 54.252 40.167,54.217 40.035,54.243 39.875 C 54.269 39.715,54.209 39.433,54.109 39.250 C 54.010 39.067,53.920 38.879,53.909 38.833 C 53.794 38.354,53.465 37.835,53.330 37.919 C 53.235 37.977,53.169 37.963,53.182 37.887 C 53.258 37.454,53.115 37.102,52.708 36.715 C 52.456 36.475,52.355 36.340,52.484 36.415 C 52.762 36.577,52.733 36.523,51.720 35.000 C 50.747 33.537,50.580 33.333,50.347 33.333 C 50.237 33.333,50.194 33.257,50.252 33.164 C 50.309 33.071,50.094 32.740,49.774 32.429 C 49.454 32.118,49.233 31.822,49.284 31.771 C 49.335 31.721,49.179 31.589,48.938 31.479 C 48.697 31.370,48.500 31.177,48.500 31.051 C 48.500 30.925,48.344 30.765,48.154 30.695 C 47.964 30.624,47.824 30.496,47.844 30.408 C 47.863 30.321,47.723 30.178,47.532 30.089 C 47.341 30.001,47.096 29.763,46.988 29.561 C 46.880 29.359,46.700 29.228,46.589 29.271 C 46.392 29.347,45.885 28.881,45.949 28.683 C 45.966 28.628,45.873 28.594,45.742 28.606 C 45.611 28.619,45.537 28.574,45.579 28.507 C 45.620 28.440,45.321 28.136,44.914 27.831 C 44.339 27.400,44.214 27.227,44.357 27.055 C 44.458 26.933,44.475 26.832,44.395 26.831 C 44.315 26.829,44.353 26.763,44.479 26.683 C 44.605 26.603,44.706 26.323,44.703 26.061 C 44.700 25.798,44.804 25.416,44.934 25.212 C 45.064 25.007,45.185 24.651,45.205 24.420 C 45.224 24.189,45.307 24.000,45.390 24.000 C 45.473 24.000,45.454 23.895,45.347 23.766 C 45.199 23.588,45.199 23.517,45.347 23.468 C 45.454 23.432,45.542 23.201,45.542 22.954 C 45.542 22.685,45.611 22.549,45.716 22.614 C 45.822 22.679,45.850 22.617,45.788 22.456 C 45.732 22.310,45.790 22.105,45.917 22.000 C 46.043 21.895,46.106 21.702,46.056 21.571 C 46.005 21.440,46.035 21.333,46.121 21.333 C 46.207 21.333,46.263 21.165,46.245 20.958 C 46.227 20.752,46.265 20.508,46.329 20.417 C 46.424 20.280,47.037 18.458,47.085 18.167 C 47.166 17.674,47.585 16.334,47.657 16.336 C 47.844 16.341,48.194 16.624,48.154 16.738 C 48.085 16.934,48.552 18.000,48.708 18.000 C 48.788 18.000,48.807 18.075,48.750 18.167 C 48.693 18.258,48.731 18.333,48.833 18.333 C 48.936 18.333,48.968 18.417,48.905 18.519 C 48.842 18.621,48.894 18.769,49.020 18.849 C 49.171 18.945,49.182 18.996,49.052 18.997 C 48.908 18.999,48.919 19.126,49.092 19.458 C 49.224 19.710,49.332 20.048,49.332 20.208 C 49.333 20.369,49.398 20.500,49.477 20.500 C 49.556 20.500,49.600 20.687,49.575 20.917 C 49.550 21.146,49.587 21.333,49.658 21.333 C 49.729 21.333,49.767 21.521,49.742 21.750 C 49.716 21.981,49.782 22.168,49.890 22.169 C 50.016 22.171,50.007 22.220,49.863 22.312 C 49.684 22.425,49.695 22.504,49.916 22.726 C 50.067 22.877,50.117 23.000,50.027 23.000 C 49.936 23.000,49.896 23.206,49.936 23.458 C 49.976 23.710,50.033 24.505,50.063 25.225 C 50.093 25.944,50.192 26.582,50.284 26.642 C 50.375 26.701,50.540 26.921,50.651 27.131 C 50.873 27.552,53.164 27.677,53.169 27.268 C 53.171 27.161,53.231 27.177,53.313 27.306 C 53.425 27.483,53.475 27.473,53.559 27.253 C 53.620 27.096,53.748 27.030,53.860 27.100 C 53.991 27.181,54.023 27.133,53.954 26.955 C 53.898 26.808,53.940 26.659,54.047 26.623 C 54.183 26.578,54.223 26.087,54.179 24.988 C 54.144 24.124,54.108 23.117,54.100 22.750 C 54.090 22.376,53.974 21.994,53.833 21.880 C 53.665 21.744,53.650 21.676,53.788 21.672 C 54.018 21.666,53.883 20.624,53.639 20.527 C 53.562 20.497,53.531 20.418,53.572 20.352 C 53.613 20.286,53.574 19.936,53.485 19.574 C 53.396 19.213,53.293 18.785,53.255 18.624 C 53.217 18.464,53.127 18.239,53.055 18.124 C 52.984 18.010,52.945 17.797,52.969 17.651 C 52.993 17.504,52.897 17.289,52.756 17.172 C 52.615 17.055,52.500 16.747,52.500 16.488 C 52.500 16.229,52.381 15.950,52.235 15.868 C 52.089 15.787,51.996 15.689,52.027 15.650 C 52.112 15.545,51.449 14.000,51.318 14.000 C 51.256 14.000,51.076 13.803,50.919 13.563 C 50.761 13.322,50.715 13.177,50.816 13.239 C 50.917 13.302,51.000 13.280,51.000 13.190 C 51.000 13.101,50.944 13.003,50.875 12.972 C 50.670 12.881,49.833 11.583,49.833 11.356 C 49.833 11.241,49.758 11.193,49.667 11.250 C 49.575 11.307,49.498 11.255,49.494 11.135 C 49.487 10.843,48.912 10.167,48.672 10.167 C 48.566 10.167,48.526 10.093,48.582 10.003 C 48.638 9.912,48.342 9.482,47.925 9.047 C 47.508 8.612,47.167 8.198,47.167 8.128 C 47.167 8.058,47.052 8.000,46.911 8.000 C 46.771 8.000,46.613 7.888,46.560 7.750 C 46.508 7.612,46.360 7.500,46.232 7.500 C 46.104 7.500,46.019 7.442,46.042 7.372 C 46.102 7.185,45.401 6.333,45.186 6.333 C 45.085 6.333,44.909 6.183,44.795 6.000 C 44.680 5.817,44.519 5.667,44.437 5.667 C 44.355 5.667,44.129 5.498,43.934 5.292 C 43.740 5.085,43.356 4.804,43.082 4.667 C 42.808 4.529,42.482 4.280,42.358 4.114 C 42.234 3.947,42.034 3.849,41.913 3.895 C 41.793 3.941,41.651 3.866,41.598 3.729 C 41.546 3.591,41.427 3.526,41.335 3.583 C 41.242 3.640,41.167 3.594,41.167 3.482 C 41.167 3.370,41.117 3.328,41.055 3.389 C 40.994 3.451,40.806 3.376,40.639 3.225 C 40.471 3.073,40.333 3.006,40.333 3.076 C 40.333 3.146,40.186 3.027,40.006 2.810 C 39.796 2.558,39.676 2.501,39.672 2.651 C 39.668 2.837,39.605 2.829,39.361 2.609 C 39.194 2.457,39.006 2.383,38.945 2.444 C 38.883 2.505,38.833 2.464,38.833 2.351 C 38.833 2.239,38.758 2.194,38.665 2.251 C 38.573 2.308,38.456 2.245,38.404 2.111 C 38.322 1.896,37.402 1.566,36.417 1.398 C 36.015 1.329,35.448 1.204,35.333 1.160 C 35.287 1.142,35.194 1.136,35.125 1.147 C 35.056 1.158,35.000 1.083,35.000 0.981 C 35.000 0.877,34.853 0.833,34.667 0.882 C 34.483 0.930,34.333 0.913,34.333 0.846 C 34.333 0.778,34.240 0.708,34.125 0.691 C 34.010 0.674,33.729 0.634,33.500 0.603 C 33.271 0.571,32.896 0.495,32.667 0.434 C 32.438 0.373,31.776 0.295,31.196 0.260 C 30.616 0.225,30.098 0.153,30.044 0.100 C 29.991 0.047,29.847 0.086,29.724 0.189 C 29.601 0.291,29.500 0.307,29.500 0.224 C 29.500 0.069,27.808 0.077,27.398 0.234 C 27.271 0.283,27.166 0.231,27.164 0.120 C 27.162 -0.012,27.119 -0.023,27.039 0.089 C 26.904 0.279,26.671 0.299,26.417 0.142 C 26.325 0.085,26.063 0.111,25.833 0.199 M31.417 3.373 C 31.875 3.403,32.348 3.488,32.468 3.563 C 32.588 3.637,32.869 3.652,33.093 3.596 C 33.346 3.532,33.500 3.565,33.500 3.683 C 33.500 3.790,33.645 3.834,33.834 3.785 C 34.046 3.729,34.127 3.763,34.056 3.877 C 33.986 3.991,34.047 4.018,34.223 3.950 C 34.375 3.892,34.500 3.908,34.500 3.986 C 34.500 4.065,34.706 4.165,34.958 4.210 C 35.210 4.254,35.934 4.485,36.567 4.723 C 37.199 4.961,37.773 5.121,37.841 5.079 C 37.909 5.036,38.008 5.114,38.061 5.251 C 38.113 5.388,38.262 5.500,38.391 5.500 C 38.520 5.500,38.722 5.615,38.838 5.756 C 38.955 5.897,39.208 5.991,39.401 5.964 C 39.613 5.935,39.733 6.000,39.707 6.129 C 39.684 6.245,39.846 6.410,40.069 6.495 C 40.603 6.698,42.192 7.830,42.468 8.205 C 42.588 8.367,42.767 8.500,42.866 8.500 C 42.965 8.500,43.143 8.631,43.260 8.792 C 43.377 8.952,43.535 9.083,43.612 9.083 C 43.811 9.083,44.500 9.801,44.500 10.010 C 44.500 10.107,44.575 10.140,44.667 10.083 C 44.758 10.027,44.833 10.054,44.833 10.143 C 44.833 10.233,45.123 10.608,45.478 10.977 C 45.917 11.434,46.053 11.675,45.903 11.732 C 45.783 11.778,45.603 12.139,45.505 12.533 C 45.406 12.927,45.258 13.372,45.175 13.520 C 45.078 13.693,45.092 13.859,45.212 13.979 C 45.352 14.118,45.333 14.167,45.139 14.167 C 44.946 14.167,44.892 14.299,44.935 14.667 C 44.967 14.942,44.929 15.167,44.851 15.167 C 44.772 15.167,44.651 15.410,44.581 15.708 C 44.511 16.006,44.444 16.287,44.432 16.333 C 44.421 16.379,44.349 16.515,44.272 16.636 C 44.196 16.757,44.176 16.898,44.227 16.950 C 44.279 17.001,44.233 17.203,44.125 17.397 C 44.017 17.591,43.926 17.800,43.923 17.861 C 43.919 17.922,43.860 18.028,43.792 18.097 C 43.607 18.282,43.640 18.536,43.833 18.417 C 43.925 18.360,44.000 18.393,44.000 18.490 C 44.000 18.587,43.869 18.668,43.708 18.669 C 43.459 18.671,43.453 18.695,43.667 18.833 C 43.873 18.966,43.875 18.995,43.681 18.997 C 43.551 18.999,43.494 19.049,43.554 19.110 C 43.614 19.170,43.581 19.319,43.480 19.441 C 43.379 19.563,43.341 19.780,43.396 19.923 C 43.451 20.067,43.430 20.143,43.349 20.093 C 43.268 20.043,43.144 20.208,43.073 20.459 C 43.002 20.711,42.931 20.954,42.915 21.000 C 42.899 21.046,42.828 21.476,42.756 21.955 C 42.676 22.484,42.557 22.785,42.453 22.721 C 42.356 22.661,42.332 22.696,42.398 22.803 C 42.461 22.906,42.396 23.217,42.253 23.495 C 42.109 23.773,42.027 24.000,42.071 24.000 C 42.114 24.000,42.040 24.262,41.906 24.583 C 41.772 24.904,41.705 25.167,41.758 25.167 C 41.810 25.167,41.793 25.260,41.721 25.375 C 41.648 25.490,41.583 25.621,41.577 25.667 C 41.571 25.712,41.434 26.191,41.272 26.729 C 40.803 28.295,40.958 28.778,42.270 29.836 C 43.040 30.456,43.655 30.833,43.895 30.833 C 44.071 30.833,44.121 30.925,44.049 31.112 C 43.967 31.326,44.009 31.365,44.230 31.281 C 44.396 31.217,44.476 31.238,44.419 31.330 C 44.364 31.418,44.517 31.540,44.759 31.600 C 45.083 31.682,45.139 31.748,44.974 31.853 C 44.798 31.965,44.808 31.995,45.024 31.997 C 45.174 31.999,45.343 32.117,45.398 32.261 C 45.453 32.404,45.573 32.474,45.665 32.417 C 45.758 32.360,45.833 32.391,45.833 32.486 C 45.833 32.580,46.171 32.995,46.583 33.408 C 46.996 33.820,47.333 34.197,47.333 34.244 C 47.333 34.444,47.905 34.976,48.034 34.896 C 48.111 34.848,48.164 34.870,48.151 34.946 C 48.089 35.301,48.184 35.509,48.359 35.401 C 48.481 35.325,48.506 35.355,48.427 35.483 C 48.352 35.605,48.489 35.845,48.775 36.090 C 49.034 36.314,49.247 36.628,49.248 36.790 C 49.249 36.951,49.341 37.065,49.452 37.044 C 49.569 37.021,49.614 37.109,49.560 37.252 C 49.507 37.388,49.539 37.500,49.631 37.500 C 49.722 37.500,49.845 37.691,49.903 37.923 C 49.962 38.156,50.084 38.301,50.176 38.244 C 50.267 38.188,50.331 38.204,50.318 38.279 C 50.253 38.651,50.364 38.984,50.667 39.333 C 50.850 39.545,51.000 39.785,51.000 39.867 C 51.000 39.949,51.155 40.331,51.345 40.716 C 51.535 41.102,51.722 41.566,51.760 41.749 C 51.799 41.932,51.906 42.108,51.999 42.139 C 52.093 42.170,52.124 42.267,52.070 42.355 C 52.016 42.443,52.064 42.626,52.176 42.762 C 52.289 42.897,52.392 43.213,52.405 43.463 C 52.418 43.712,52.520 44.080,52.631 44.281 C 52.742 44.481,52.833 44.975,52.833 45.378 C 52.833 45.781,52.882 46.160,52.941 46.219 C 53.000 46.278,53.069 46.534,53.093 46.788 C 53.117 47.042,53.192 47.587,53.259 48.000 C 53.363 48.641,53.372 50.754,53.281 53.458 C 53.268 53.848,53.198 54.167,53.126 54.167 C 53.054 54.167,52.999 54.373,53.004 54.625 C 53.019 55.296,52.932 55.905,52.809 56.000 C 52.750 56.046,52.675 56.383,52.642 56.750 C 52.610 57.117,52.523 57.461,52.450 57.515 C 52.376 57.569,52.288 57.832,52.253 58.098 C 52.218 58.365,52.184 58.602,52.178 58.625 C 52.172 58.648,52.173 58.715,52.181 58.773 C 52.189 58.832,52.131 58.925,52.053 58.981 C 51.821 59.147,51.488 60.012,51.591 60.179 C 51.643 60.264,51.607 60.333,51.510 60.333 C 51.413 60.333,51.333 60.451,51.333 60.595 C 51.333 60.739,51.146 61.177,50.917 61.568 C 50.688 61.959,50.557 62.340,50.625 62.416 C 50.694 62.492,50.658 62.501,50.547 62.437 C 50.417 62.362,50.305 62.473,50.237 62.743 C 50.178 62.976,50.051 63.167,49.954 63.167 C 49.857 63.167,49.826 63.214,49.884 63.273 C 49.993 63.382,49.402 64.324,49.091 64.536 C 48.995 64.601,48.917 64.735,48.917 64.833 C 48.917 64.932,48.804 65.083,48.667 65.170 C 48.529 65.257,48.477 65.329,48.551 65.331 C 48.625 65.332,48.490 65.502,48.250 65.708 C 48.011 65.915,47.798 66.204,47.776 66.352 C 47.735 66.635,47.659 66.718,46.539 67.708 C 46.151 68.052,45.926 68.334,46.041 68.334 C 46.156 68.334,46.014 68.478,45.726 68.654 C 45.438 68.830,44.803 69.354,44.315 69.820 C 43.827 70.286,43.331 70.667,43.214 70.667 C 43.096 70.667,43.019 70.750,43.042 70.853 C 43.065 70.955,42.954 71.061,42.795 71.088 C 42.636 71.114,42.392 71.251,42.252 71.391 C 42.112 71.530,41.847 71.693,41.663 71.751 C 41.479 71.810,41.373 71.929,41.427 72.016 C 41.481 72.103,41.463 72.161,41.387 72.144 C 41.175 72.097,40.616 72.369,40.273 72.688 C 40.103 72.846,39.859 72.935,39.732 72.887 C 39.604 72.838,39.500 72.881,39.500 72.982 C 39.500 73.084,39.444 73.155,39.375 73.140 C 39.132 73.089,38.670 73.370,38.760 73.516 C 38.810 73.597,38.734 73.618,38.592 73.564 C 38.450 73.509,38.333 73.543,38.333 73.639 C 38.333 73.735,38.183 73.785,38.000 73.750 C 37.817 73.715,37.667 73.761,37.667 73.853 C 37.667 73.945,37.600 73.979,37.519 73.928 C 37.438 73.878,37.292 73.932,37.195 74.049 C 37.098 74.166,36.802 74.277,36.537 74.298 C 36.272 74.318,35.509 74.525,34.843 74.758 C 34.176 74.991,33.470 75.159,33.274 75.132 C 33.077 75.105,32.929 75.158,32.944 75.250 C 32.973 75.423,32.460 75.509,31.458 75.498 C 31.344 75.496,29.990 75.521,28.450 75.551 C 26.910 75.582,25.609 75.542,25.560 75.462 C 25.511 75.382,25.350 75.415,25.203 75.534 C 25.031 75.673,24.978 75.680,25.054 75.553 C 25.135 75.418,25.020 75.360,24.694 75.369 C 24.430 75.377,24.129 75.330,24.024 75.265 C 23.918 75.199,23.832 75.244,23.831 75.365 C 23.829 75.534,23.795 75.531,23.681 75.351 C 23.600 75.223,23.416 75.163,23.272 75.218 C 23.128 75.274,22.963 75.242,22.905 75.148 C 22.847 75.054,22.704 75.014,22.587 75.059 C 22.470 75.104,22.307 75.074,22.225 74.992 C 22.143 74.910,21.928 74.815,21.746 74.780 C 21.565 74.746,21.206 74.631,20.947 74.525 C 20.689 74.420,20.368 74.333,20.233 74.333 C 20.099 74.333,19.788 74.202,19.542 74.042 C 19.297 73.881,19.153 73.843,19.223 73.956 C 19.310 74.097,19.269 74.131,19.092 74.064 C 18.950 74.009,18.833 73.898,18.833 73.817 C 18.833 73.737,18.535 73.623,18.170 73.564 C 17.805 73.506,17.542 73.401,17.585 73.330 C 17.655 73.217,17.212 73.039,16.517 72.902 C 16.388 72.876,16.238 72.788,16.183 72.705 C 16.034 72.480,14.103 71.260,13.958 71.299 C 13.890 71.318,13.833 71.246,13.833 71.139 C 13.833 71.032,13.790 70.988,13.737 71.041 C 13.683 71.094,13.371 70.841,13.043 70.477 C 12.603 69.990,12.410 69.874,12.309 70.033 C 12.212 70.187,12.171 70.149,12.169 69.902 C 12.168 69.694,11.999 69.477,11.750 69.364 C 11.521 69.259,11.333 69.093,11.333 68.994 C 11.333 68.895,11.264 68.857,11.179 68.909 C 11.094 68.962,10.977 68.858,10.920 68.678 C 10.863 68.498,10.670 68.304,10.491 68.247 C 10.313 68.191,10.167 68.037,10.167 67.905 C 10.167 67.774,10.097 67.667,10.011 67.667 C 9.597 67.667,9.161 66.702,9.359 66.223 C 9.466 65.963,9.539 65.662,9.522 65.554 C 9.505 65.447,9.565 65.313,9.655 65.257 C 9.745 65.202,9.777 65.046,9.725 64.911 C 9.673 64.777,9.718 64.667,9.825 64.667 C 9.932 64.667,9.978 64.600,9.928 64.518 C 9.877 64.436,9.949 64.098,10.087 63.768 C 10.225 63.437,10.290 63.167,10.232 63.167 C 10.174 63.167,10.216 63.057,10.327 62.924 C 10.438 62.790,10.473 62.591,10.405 62.482 C 10.332 62.363,10.352 62.325,10.455 62.389 C 10.702 62.542,10.833 61.903,10.606 61.656 C 10.462 61.501,10.470 61.481,10.636 61.576 C 10.776 61.655,10.839 61.618,10.810 61.475 C 10.784 61.351,10.862 61.072,10.982 60.854 C 11.102 60.637,11.225 60.299,11.254 60.104 C 11.314 59.702,11.410 59.319,11.646 58.542 C 11.736 58.244,11.766 58.000,11.713 58.000 C 11.659 58.000,11.758 57.837,11.933 57.638 C 12.131 57.412,12.156 57.330,12.000 57.420 C 11.787 57.543,11.783 57.524,11.973 57.289 C 12.095 57.138,12.147 56.936,12.088 56.841 C 12.029 56.745,12.047 56.667,12.129 56.667 C 12.211 56.667,12.287 56.573,12.299 56.458 C 12.356 55.890,12.569 55.237,12.733 55.125 C 12.860 55.039,12.839 54.949,12.667 54.836 C 12.453 54.695,12.459 54.671,12.708 54.669 C 12.921 54.667,13.000 54.531,13.000 54.167 C 13.000 53.432,12.997 53.446,13.252 53.057 C 13.381 52.860,13.456 52.539,13.419 52.345 C 13.381 52.150,13.406 52.025,13.474 52.067 C 13.541 52.109,13.773 51.492,13.989 50.696 C 14.205 49.901,14.455 49.157,14.544 49.043 C 14.633 48.928,14.665 48.677,14.614 48.484 C 14.564 48.292,14.570 48.181,14.628 48.240 C 14.761 48.372,15.180 46.990,15.065 46.803 C 15.018 46.728,15.079 46.666,15.198 46.664 C 15.357 46.662,15.348 46.617,15.167 46.500 C 15.009 46.398,14.991 46.337,15.120 46.336 C 15.240 46.334,15.280 46.221,15.216 46.056 C 15.151 45.885,15.177 45.820,15.284 45.886 C 15.547 46.049,15.497 45.205,15.231 44.984 C 15.106 44.880,15.045 44.729,15.095 44.648 C 15.145 44.567,15.102 44.500,14.998 44.500 C 14.797 44.500,14.439 44.192,14.321 43.917 C 14.282 43.825,14.157 43.760,14.043 43.773 C 13.930 43.785,13.878 43.729,13.928 43.648 C 13.979 43.567,13.898 43.500,13.750 43.500 C 13.602 43.500,13.527 43.425,13.583 43.333 C 13.640 43.242,13.610 43.167,13.517 43.167 C 13.425 43.167,13.165 42.998,12.941 42.792 C 12.717 42.585,12.231 42.142,11.863 41.807 C 11.494 41.471,11.239 41.149,11.297 41.092 C 11.355 41.034,11.237 40.944,11.036 40.891 C 10.835 40.838,10.712 40.728,10.763 40.645 C 10.815 40.562,10.585 40.231,10.254 39.910 C 9.923 39.588,9.683 39.271,9.721 39.204 C 9.760 39.138,9.639 38.933,9.453 38.750 C 9.267 38.567,9.176 38.522,9.250 38.651 C 9.339 38.804,9.321 38.846,9.200 38.770 C 9.098 38.707,9.052 38.558,9.098 38.438 C 9.144 38.318,9.067 38.125,8.926 38.008 C 8.785 37.891,8.711 37.729,8.762 37.648 C 8.812 37.567,8.732 37.500,8.583 37.500 C 8.428 37.500,8.362 37.421,8.428 37.315 C 8.491 37.213,8.464 37.081,8.368 37.021 C 8.272 36.962,8.169 36.802,8.138 36.666 C 8.108 36.529,8.005 36.343,7.909 36.251 C 7.813 36.159,7.592 35.644,7.418 35.107 C 7.243 34.570,7.008 34.095,6.896 34.052 C 6.783 34.009,6.717 33.839,6.749 33.674 C 6.780 33.509,6.700 33.169,6.571 32.920 C 6.441 32.670,6.373 32.404,6.419 32.329 C 6.465 32.255,6.405 32.094,6.286 31.972 C 6.167 31.850,6.062 31.581,6.053 31.375 C 6.044 31.169,6.020 30.981,6.000 30.958 C 5.979 30.935,5.937 30.692,5.906 30.417 C 5.874 30.142,5.804 29.692,5.750 29.417 C 5.695 29.142,5.634 28.692,5.614 28.417 C 5.594 28.142,5.512 27.811,5.430 27.683 C 5.324 27.515,5.341 27.485,5.491 27.578 C 5.648 27.675,5.661 27.629,5.545 27.395 C 5.375 27.054,5.380 25.601,5.558 24.167 C 5.620 23.662,5.689 22.950,5.711 22.583 C 5.732 22.217,5.824 21.864,5.915 21.799 C 6.021 21.723,6.009 21.609,5.880 21.480 C 5.724 21.324,5.728 21.184,5.900 20.848 C 6.277 20.109,6.661 18.866,6.726 18.167 C 6.739 18.029,6.811 17.872,6.886 17.817 C 6.961 17.762,7.043 17.612,7.068 17.483 C 7.094 17.355,7.276 16.888,7.474 16.445 C 7.672 16.001,7.833 15.566,7.833 15.476 C 7.833 15.387,7.901 15.355,7.984 15.407 C 8.067 15.458,8.217 15.261,8.319 14.969 C 8.421 14.677,8.634 14.289,8.794 14.107 C 9.010 13.859,9.020 13.807,8.833 13.900 C 8.696 13.969,8.733 13.901,8.917 13.751 C 9.100 13.600,9.231 13.405,9.207 13.317 C 9.183 13.229,9.272 13.116,9.405 13.065 C 9.537 13.014,9.604 12.863,9.552 12.729 C 9.501 12.596,9.525 12.508,9.605 12.535 C 9.685 12.562,9.783 12.508,9.824 12.417 C 9.957 12.117,10.247 11.867,10.373 11.943 C 10.441 11.984,10.455 11.911,10.405 11.781 C 10.350 11.635,10.447 11.509,10.658 11.454 C 10.905 11.389,10.970 11.282,10.888 11.070 C 10.801 10.842,10.839 10.800,11.054 10.883 C 11.208 10.941,11.333 10.924,11.333 10.845 C 11.333 10.653,12.491 9.500,12.683 9.500 C 12.766 9.500,12.833 9.387,12.833 9.250 C 12.833 9.112,12.890 9.000,12.958 8.999 C 13.027 8.999,13.308 8.806,13.583 8.570 C 13.858 8.335,13.978 8.197,13.849 8.264 C 13.690 8.346,13.655 8.320,13.741 8.181 C 13.810 8.069,13.961 8.013,14.076 8.057 C 14.321 8.151,14.857 7.585,14.695 7.404 C 14.633 7.336,14.671 7.330,14.778 7.391 C 14.885 7.453,15.083 7.393,15.217 7.259 C 15.351 7.125,15.507 7.062,15.563 7.119 C 15.620 7.176,15.667 7.135,15.667 7.028 C 15.667 6.921,15.747 6.833,15.845 6.833 C 15.943 6.833,16.356 6.605,16.762 6.325 C 17.168 6.046,17.500 5.861,17.500 5.915 C 17.500 5.969,17.664 5.860,17.865 5.673 C 18.065 5.486,18.370 5.333,18.541 5.333 C 18.713 5.333,18.807 5.259,18.751 5.169 C 18.693 5.074,18.760 5.046,18.908 5.103 C 19.050 5.158,19.167 5.132,19.167 5.046 C 19.167 4.959,19.260 4.883,19.375 4.877 C 19.658 4.860,20.651 4.505,21.192 4.227 C 21.436 4.102,21.788 4.000,21.974 4.000 C 22.161 4.000,22.363 3.920,22.424 3.822 C 22.484 3.724,22.631 3.681,22.751 3.727 C 22.870 3.773,23.007 3.771,23.056 3.722 C 23.105 3.673,23.506 3.614,23.947 3.590 C 24.725 3.547,26.546 3.326,26.619 3.264 C 26.669 3.222,30.399 3.307,31.417 3.373 M165.615 19.689 C 165.449 19.784,165.205 19.820,165.073 19.769 C 164.941 19.719,164.833 19.747,164.833 19.833 C 164.833 19.919,164.720 19.946,164.581 19.893 C 164.443 19.840,164.229 19.879,164.108 19.980 C 163.986 20.081,163.837 20.114,163.776 20.054 C 163.716 19.994,163.667 20.022,163.667 20.116 C 163.667 20.210,163.474 20.250,163.238 20.205 C 163.002 20.160,162.646 20.203,162.446 20.300 C 162.247 20.398,161.802 20.604,161.458 20.758 C 161.115 20.912,160.833 21.109,160.833 21.195 C 160.833 21.282,160.758 21.307,160.667 21.250 C 160.500 21.147,159.465 21.642,159.361 21.875 C 159.331 21.944,159.213 22.000,159.101 22.000 C 158.988 22.000,158.732 22.153,158.531 22.340 C 158.331 22.527,158.164 22.620,158.161 22.548 C 158.158 22.476,158.065 22.534,157.953 22.677 C 157.841 22.820,157.507 23.080,157.209 23.254 C 156.912 23.428,156.687 23.678,156.709 23.808 C 156.732 23.939,156.617 24.066,156.455 24.092 C 156.118 24.145,155.514 24.809,155.506 25.135 C 155.502 25.255,155.433 25.312,155.352 25.262 C 155.186 25.159,154.889 25.462,154.805 25.820 C 154.775 25.950,154.616 26.196,154.452 26.367 C 154.288 26.539,154.207 26.770,154.271 26.881 C 154.335 26.992,154.328 27.030,154.256 26.965 C 154.108 26.832,153.351 27.874,153.284 28.303 C 153.260 28.457,153.182 28.677,153.110 28.792 C 153.039 28.906,153.041 29.002,153.115 29.005 C 153.189 29.008,153.115 29.089,152.949 29.185 C 152.696 29.332,152.683 29.403,152.866 29.629 C 152.990 29.782,153.002 29.848,152.892 29.783 C 152.682 29.657,152.443 30.107,152.593 30.348 C 152.644 30.432,152.599 30.500,152.492 30.500 C 152.385 30.500,152.341 30.613,152.394 30.750 C 152.446 30.887,152.408 31.000,152.309 31.000 C 152.206 31.000,152.162 31.178,152.206 31.411 C 152.250 31.637,152.215 31.845,152.130 31.873 C 152.045 31.902,151.962 32.223,151.944 32.587 C 151.927 32.952,151.863 33.326,151.804 33.420 C 151.530 33.846,151.696 45.833,151.978 45.997 C 152.141 46.093,152.166 46.159,152.042 46.162 C 151.800 46.167,151.753 46.667,151.995 46.667 C 152.084 46.667,152.113 46.779,152.060 46.917 C 152.008 47.054,152.043 47.167,152.139 47.167 C 152.235 47.167,152.285 47.319,152.249 47.504 C 152.213 47.690,152.255 47.798,152.342 47.745 C 152.429 47.691,152.500 47.876,152.500 48.157 C 152.500 48.437,152.573 48.667,152.661 48.667 C 152.750 48.667,152.784 48.769,152.736 48.894 C 152.635 49.156,153.177 50.500,153.382 50.500 C 153.458 50.500,153.473 50.575,153.417 50.667 C 153.360 50.758,153.406 50.833,153.518 50.833 C 153.630 50.833,153.675 50.881,153.617 50.939 C 153.460 51.096,153.825 51.692,154.008 51.578 C 154.095 51.524,154.167 51.625,154.167 51.801 C 154.167 51.977,154.317 52.312,154.500 52.545 C 154.683 52.779,154.835 53.032,154.836 53.110 C 154.840 53.320,156.298 54.833,156.495 54.833 C 156.590 54.833,156.667 54.946,156.667 55.083 C 156.667 55.221,156.771 55.333,156.897 55.333 C 157.024 55.333,157.251 55.521,157.401 55.750 C 157.551 55.979,157.827 56.167,158.014 56.167 C 158.200 56.167,158.307 56.242,158.250 56.333 C 158.193 56.425,158.223 56.500,158.316 56.500 C 158.409 56.500,158.760 56.686,159.096 56.914 C 159.431 57.142,159.784 57.281,159.879 57.222 C 159.987 57.155,160.000 57.198,159.915 57.336 C 159.815 57.498,159.855 57.527,160.065 57.447 C 160.236 57.381,160.309 57.404,160.248 57.503 C 160.192 57.594,160.244 57.699,160.364 57.735 C 160.485 57.772,160.733 57.858,160.917 57.926 C 161.298 58.069,161.463 58.106,161.885 58.141 C 162.063 58.156,162.139 58.244,162.070 58.355 C 161.999 58.469,162.044 58.513,162.185 58.465 C 162.312 58.422,162.664 58.490,162.966 58.616 C 163.268 58.741,163.590 58.798,163.681 58.741 C 163.773 58.684,163.945 58.719,164.065 58.818 C 164.672 59.322,180.333 59.508,180.333 59.011 C 180.333 58.959,180.577 58.906,180.875 58.893 C 181.773 58.853,182.463 58.698,182.867 58.445 C 183.078 58.314,183.459 58.158,183.715 58.098 C 183.971 58.039,184.136 57.918,184.081 57.830 C 184.026 57.741,184.098 57.715,184.243 57.770 C 184.386 57.825,184.687 57.749,184.912 57.602 C 185.137 57.454,185.429 57.333,185.560 57.333 C 185.691 57.333,185.841 57.220,185.894 57.082 C 185.947 56.943,186.087 56.850,186.204 56.873 C 186.321 56.897,186.399 56.826,186.377 56.714 C 186.354 56.597,186.442 56.552,186.585 56.607 C 186.722 56.660,186.833 56.619,186.833 56.518 C 186.833 56.416,186.917 56.333,187.018 56.333 C 187.354 56.333,189.749 54.035,189.752 53.710 C 189.753 53.596,189.792 53.521,189.839 53.543 C 189.975 53.607,190.472 53.096,190.396 52.970 C 190.359 52.907,190.479 52.751,190.663 52.621 C 190.847 52.492,190.950 52.339,190.892 52.281 C 190.834 52.223,190.965 52.026,191.185 51.843 C 191.404 51.660,191.524 51.509,191.452 51.506 C 191.380 51.502,191.415 51.331,191.530 51.125 C 191.644 50.919,191.722 50.694,191.702 50.625 C 191.683 50.556,191.742 50.500,191.833 50.500 C 191.925 50.500,191.991 50.444,191.980 50.375 C 191.928 50.043,192.017 49.824,192.167 49.917 C 192.258 49.973,192.333 49.871,192.333 49.690 C 192.333 49.509,192.485 49.007,192.671 48.574 C 192.856 48.140,192.970 47.747,192.922 47.700 C 192.875 47.653,192.909 47.526,192.998 47.419 C 193.087 47.311,193.191 46.832,193.228 46.353 C 193.266 45.873,193.323 45.454,193.356 45.421 C 193.390 45.388,193.395 42.674,193.369 39.389 C 193.306 31.571,193.319 32.000,193.138 32.000 C 193.051 32.000,193.027 31.925,193.083 31.833 C 193.140 31.742,193.127 31.573,193.054 31.458 C 192.981 31.344,192.911 31.194,192.898 31.125 C 192.886 31.056,192.860 30.981,192.841 30.958 C 192.794 30.900,192.668 30.306,192.629 29.958 C 192.611 29.798,192.537 29.667,192.465 29.667 C 192.392 29.667,192.333 29.554,192.333 29.417 C 192.333 29.279,192.254 29.167,192.157 29.167 C 192.060 29.167,192.027 29.092,192.083 29.000 C 192.140 28.909,192.069 28.667,191.926 28.463 C 191.784 28.259,191.667 27.959,191.667 27.796 C 191.667 27.633,191.592 27.500,191.500 27.500 C 191.408 27.500,191.350 27.444,191.370 27.375 C 191.476 27.019,188.939 23.833,188.550 23.833 C 188.437 23.833,188.271 23.695,188.181 23.526 C 187.993 23.175,186.986 22.371,186.645 22.298 C 186.519 22.272,186.295 22.119,186.147 21.958 C 185.999 21.798,185.811 21.667,185.730 21.667 C 185.516 21.668,184.102 20.943,183.975 20.767 C 183.916 20.685,183.747 20.664,183.600 20.720 C 183.453 20.777,183.333 20.752,183.333 20.665 C 183.333 20.578,183.127 20.457,182.875 20.397 C 182.623 20.337,182.317 20.209,182.196 20.113 C 182.036 19.987,181.932 20.005,181.823 20.177 C 181.709 20.358,181.671 20.363,181.669 20.198 C 181.668 20.079,181.592 20.027,181.500 20.083 C 181.408 20.140,181.333 20.118,181.333 20.036 C 181.333 19.953,181.127 19.899,180.875 19.917 C 180.623 19.934,180.342 19.906,180.250 19.854 C 179.857 19.631,179.252 19.608,172.750 19.564 C 168.278 19.534,165.812 19.577,165.615 19.689 M203.167 20.198 C 203.167 20.292,203.054 20.326,202.917 20.273 C 202.779 20.220,202.667 20.253,202.667 20.346 C 202.667 20.439,202.573 20.493,202.458 20.467 C 202.163 20.399,201.167 21.141,201.167 21.428 C 201.167 21.559,201.092 21.667,201.000 21.667 C 200.908 21.667,200.833 21.779,200.833 21.917 C 200.833 22.054,200.757 22.167,200.663 22.167 C 200.570 22.167,200.527 22.354,200.569 22.583 C 200.611 22.813,200.577 23.000,200.495 23.000 C 200.407 23.000,200.347 30.422,200.351 40.958 C 200.354 50.835,200.395 58.823,200.442 58.708 C 200.551 58.444,207.274 58.404,207.361 58.667 C 207.392 58.759,207.396 51.840,207.370 43.292 C 207.344 34.744,207.365 27.579,207.416 27.370 L 207.509 26.989 219.312 27.036 C 232.157 27.087,231.486 27.035,231.901 28.016 C 232.019 28.296,232.054 29.303,232.000 30.875 C 231.954 32.210,231.973 33.268,232.041 33.225 C 232.110 33.182,232.088 33.352,231.993 33.603 C 231.898 33.853,231.858 34.157,231.905 34.279 C 231.951 34.400,231.912 34.500,231.818 34.500 C 231.724 34.500,231.695 34.578,231.755 34.674 C 231.814 34.770,231.741 35.032,231.594 35.257 C 231.446 35.482,231.367 35.667,231.417 35.667 C 231.467 35.667,231.392 35.892,231.250 36.167 C 231.108 36.442,230.918 36.667,230.829 36.667 C 230.740 36.667,230.667 36.761,230.667 36.877 C 230.667 36.992,230.514 37.182,230.327 37.299 C 230.140 37.415,230.039 37.595,230.103 37.698 C 230.173 37.812,230.143 37.838,230.026 37.766 C 229.920 37.701,229.833 37.724,229.833 37.818 C 229.833 37.912,229.721 37.946,229.583 37.894 C 229.423 37.832,229.333 37.897,229.333 38.075 C 229.333 38.228,229.255 38.305,229.159 38.245 C 229.064 38.186,228.895 38.206,228.784 38.290 C 228.551 38.466,227.143 38.908,226.958 38.864 C 226.890 38.847,226.833 38.890,226.833 38.958 C 226.833 39.027,223.140 39.083,218.625 39.083 L 210.417 39.083 210.333 42.633 L 210.250 46.183 212.790 46.133 C 214.770 46.094,215.349 46.132,215.414 46.302 C 215.460 46.423,215.573 46.474,215.665 46.417 C 215.758 46.360,215.833 46.414,215.833 46.536 C 215.833 46.832,216.380 47.290,216.632 47.206 C 216.742 47.169,216.902 47.326,216.989 47.554 C 217.075 47.781,217.237 48.024,217.349 48.093 C 217.485 48.177,217.508 48.148,217.419 48.004 C 217.331 47.861,217.364 47.816,217.518 47.867 C 217.646 47.910,217.751 48.013,217.753 48.097 C 217.758 48.406,218.028 48.667,218.343 48.667 C 218.521 48.667,218.667 48.740,218.667 48.829 C 218.667 48.918,219.004 49.329,219.417 49.741 C 219.829 50.154,220.167 50.459,220.167 50.420 C 220.167 50.381,220.339 50.514,220.551 50.716 C 221.245 51.381,221.833 51.833,222.001 51.833 C 222.092 51.833,222.167 51.946,222.167 52.083 C 222.167 52.221,222.236 52.333,222.321 52.333 C 222.405 52.333,222.695 52.519,222.964 52.745 C 223.233 52.972,223.514 53.103,223.587 53.037 C 223.660 52.971,223.669 53.006,223.606 53.115 C 223.475 53.344,224.319 54.195,224.542 54.058 C 224.623 54.007,224.730 54.124,224.781 54.317 C 224.831 54.509,224.976 54.667,225.103 54.667 C 225.230 54.667,225.333 54.746,225.333 54.843 C 225.333 54.940,225.403 54.977,225.488 54.924 C 225.573 54.872,225.691 54.980,225.749 55.164 C 225.808 55.349,225.926 55.500,226.012 55.500 C 226.097 55.500,226.423 55.771,226.736 56.102 C 227.109 56.498,227.380 56.660,227.527 56.576 C 227.650 56.505,227.694 56.509,227.625 56.585 C 227.466 56.759,227.973 57.333,228.286 57.333 C 228.414 57.333,228.477 57.403,228.424 57.488 C 228.372 57.573,228.481 57.691,228.667 57.750 C 228.853 57.809,229.229 58.096,229.502 58.387 C 229.775 58.678,229.999 58.823,229.999 58.708 C 230.000 58.413,240.172 58.405,240.467 58.700 C 240.589 58.823,240.667 58.833,240.667 58.726 C 240.667 58.630,240.517 58.416,240.333 58.250 C 240.150 58.084,240.000 57.997,240.000 58.056 C 240.000 58.115,239.786 57.939,239.524 57.665 C 239.262 57.391,238.962 57.167,238.857 57.167 C 238.752 57.167,238.667 57.054,238.667 56.917 C 238.667 56.779,238.610 56.676,238.542 56.686 C 238.244 56.733,237.986 56.657,238.056 56.542 C 238.098 56.473,238.027 56.320,237.899 56.202 C 237.771 56.084,237.666 56.046,237.666 56.118 C 237.665 56.191,237.515 56.025,237.333 55.750 C 237.151 55.475,237.002 55.314,237.001 55.392 C 237.000 55.470,236.796 55.302,236.546 55.017 C 236.297 54.733,235.997 54.500,235.880 54.500 C 235.762 54.500,235.667 54.430,235.667 54.345 C 235.667 54.259,235.516 54.141,235.331 54.083 C 235.146 54.024,235.038 53.906,235.091 53.821 C 235.143 53.736,235.106 53.667,235.009 53.667 C 234.911 53.667,234.670 53.482,234.474 53.256 C 234.277 53.030,234.041 52.891,233.949 52.948 C 233.854 53.007,233.833 52.968,233.901 52.858 C 233.971 52.746,233.894 52.619,233.719 52.557 C 233.553 52.498,233.215 52.236,232.968 51.975 C 232.721 51.714,232.402 51.500,232.259 51.500 C 232.117 51.500,232.009 51.444,232.020 51.375 C 232.074 51.031,231.975 50.833,231.750 50.833 C 231.612 50.833,231.500 50.754,231.500 50.657 C 231.500 50.560,231.431 50.523,231.347 50.575 C 231.263 50.627,230.937 50.369,230.623 50.001 C 230.309 49.634,229.999 49.333,229.935 49.333 C 229.796 49.333,229.667 49.223,228.180 47.833 C 227.543 47.237,226.851 46.619,226.643 46.458 C 226.436 46.298,226.356 46.167,226.466 46.167 C 226.576 46.167,226.685 46.161,226.708 46.155 C 227.464 45.938,228.933 45.732,229.269 45.796 C 229.515 45.843,229.675 45.815,229.624 45.732 C 229.573 45.650,229.729 45.571,229.969 45.557 C 230.210 45.543,230.434 45.448,230.467 45.348 C 230.501 45.247,230.597 45.207,230.681 45.259 C 230.764 45.310,231.000 45.236,231.203 45.093 C 231.407 44.950,231.707 44.833,231.870 44.833 C 232.033 44.833,232.167 44.746,232.167 44.639 C 232.167 44.532,232.213 44.491,232.270 44.548 C 232.327 44.604,232.483 44.541,232.617 44.407 C 232.751 44.273,232.927 44.205,233.008 44.255 C 233.089 44.305,233.251 44.193,233.368 44.006 C 233.485 43.820,233.640 43.667,233.714 43.667 C 233.844 43.667,234.070 43.504,234.640 43.000 C 234.795 42.862,235.133 42.613,235.391 42.446 C 235.648 42.279,235.935 41.926,236.027 41.661 C 236.119 41.397,236.334 41.136,236.503 41.082 C 236.673 41.028,236.910 40.763,237.030 40.492 C 237.150 40.221,237.309 40.000,237.384 40.000 C 237.459 40.000,237.473 39.925,237.417 39.833 C 237.360 39.742,237.379 39.667,237.459 39.667 C 237.672 39.667,238.167 38.556,238.167 38.078 C 238.167 37.852,238.240 37.667,238.329 37.667 C 238.565 37.667,238.814 36.622,238.633 36.388 C 238.534 36.261,238.585 36.133,238.782 36.017 C 239.044 35.863,239.051 35.818,238.833 35.672 C 238.646 35.547,238.639 35.504,238.805 35.503 C 238.973 35.501,239.009 35.256,238.954 34.500 C 238.915 33.950,238.928 33.500,238.983 33.500 C 239.117 33.500,239.048 28.546,238.910 28.323 C 238.851 28.226,238.847 27.969,238.902 27.751 C 238.956 27.532,238.936 27.313,238.856 27.264 C 238.777 27.215,238.750 26.974,238.797 26.729 C 238.863 26.380,238.832 26.314,238.649 26.424 C 238.451 26.543,238.451 26.522,238.645 26.282 C 238.804 26.087,238.814 26.000,238.680 26.000 C 238.573 26.000,238.504 25.906,238.526 25.792 C 238.582 25.507,238.132 24.333,237.967 24.333 C 237.893 24.333,237.833 24.218,237.833 24.078 C 237.833 23.938,237.721 23.780,237.584 23.727 C 237.447 23.675,237.377 23.565,237.427 23.483 C 237.478 23.400,237.428 23.333,237.315 23.333 C 237.203 23.333,237.161 23.284,237.221 23.223 C 237.282 23.163,237.171 23.031,236.976 22.932 C 236.781 22.832,236.616 22.675,236.610 22.583 C 236.594 22.343,235.327 21.317,235.168 21.416 C 235.095 21.461,234.989 21.378,234.933 21.232 C 234.874 21.080,234.724 21.006,234.582 21.061 C 234.445 21.113,234.333 21.096,234.333 21.022 C 234.333 20.683,232.440 20.082,231.667 20.175 C 230.604 20.302,204.198 20.312,203.739 20.185 C 203.356 20.079,203.167 20.084,203.167 20.198 M286.346 20.130 C 286.336 20.298,285.290 20.339,281.375 20.325 L 276.417 20.307 274.542 22.158 C 273.510 23.176,272.666 24.063,272.666 24.129 C 272.664 24.301,271.054 25.833,270.874 25.833 C 270.620 25.833,269.990 26.600,270.123 26.747 C 270.193 26.824,270.170 26.841,270.072 26.786 C 269.917 26.697,268.740 27.872,267.227 29.625 C 266.969 29.923,266.677 30.167,266.576 30.167 C 266.338 30.167,265.664 30.942,265.791 31.069 C 265.845 31.123,265.780 31.167,265.647 31.167 C 265.514 31.167,265.070 31.557,264.661 32.034 C 263.685 33.173,262.154 34.667,261.964 34.667 C 261.881 34.667,261.852 34.728,261.898 34.803 C 261.944 34.878,261.761 35.069,261.491 35.229 C 261.221 35.388,261.000 35.590,261.000 35.676 C 261.000 35.768,259.925 35.833,258.417 35.833 L 255.833 35.833 255.833 39.417 L 255.833 43.000 258.312 43.000 L 260.790 43.000 262.129 44.255 C 262.866 44.946,263.663 45.664,263.901 45.851 C 264.139 46.038,264.333 46.258,264.333 46.339 C 264.333 46.538,267.297 49.500,267.495 49.500 C 267.581 49.500,268.115 50.044,268.682 50.708 C 269.823 52.046,270.984 53.167,271.229 53.167 C 271.317 53.167,271.339 53.217,271.277 53.278 C 271.147 53.408,271.642 54.000,271.881 54.000 C 272.086 54.000,273.151 55.117,273.064 55.241 C 273.029 55.292,273.049 55.296,273.110 55.251 C 273.274 55.129,273.678 55.514,273.569 55.690 C 273.517 55.773,273.571 55.821,273.688 55.796 C 273.806 55.771,273.905 55.828,273.909 55.923 C 273.913 56.017,274.479 56.655,275.167 57.339 L 276.417 58.583 281.322 58.539 C 284.812 58.508,286.261 58.549,286.343 58.682 C 286.424 58.814,286.491 58.816,286.569 58.689 C 286.634 58.585,286.496 58.463,286.241 58.400 C 285.917 58.318,285.861 58.252,286.026 58.147 C 286.243 58.009,286.022 57.918,285.625 57.980 C 285.556 57.991,285.517 57.944,285.539 57.875 C 285.599 57.681,283.126 55.172,282.969 55.269 C 282.893 55.316,282.779 55.219,282.715 55.053 C 282.548 54.616,281.799 53.909,281.562 53.963 C 281.450 53.988,281.304 53.920,281.237 53.812 C 281.154 53.678,281.187 53.660,281.340 53.754 C 281.464 53.831,281.396 53.655,281.188 53.363 C 280.829 52.859,280.263 52.435,279.931 52.423 C 279.847 52.419,279.743 52.312,279.701 52.185 C 279.649 52.031,279.695 51.998,279.837 52.086 C 279.979 52.173,280.011 52.152,279.931 52.023 C 279.865 51.916,279.740 51.871,279.655 51.924 C 279.570 51.977,279.500 51.936,279.500 51.833 C 279.500 51.731,279.412 51.701,279.305 51.768 C 279.173 51.849,279.145 51.796,279.220 51.602 C 279.280 51.445,279.270 51.353,279.197 51.398 C 279.124 51.443,278.850 51.222,278.587 50.907 C 278.324 50.591,278.028 50.330,277.929 50.325 C 277.831 50.320,277.450 49.948,277.083 49.498 C 276.717 49.048,276.254 48.593,276.056 48.486 C 275.857 48.379,275.658 48.152,275.613 47.980 C 275.568 47.809,275.412 47.623,275.267 47.567 C 275.121 47.511,274.667 47.135,274.259 46.733 C 273.850 46.330,273.433 46.000,273.331 46.000 C 273.230 46.000,273.193 45.925,273.250 45.833 C 273.307 45.742,273.269 45.667,273.167 45.667 C 273.064 45.667,273.035 45.579,273.101 45.472 C 273.182 45.341,273.130 45.312,272.944 45.383 C 272.788 45.443,272.667 45.409,272.667 45.304 C 272.667 45.114,271.972 44.416,271.404 44.035 C 271.228 43.917,271.196 43.870,271.333 43.931 C 271.471 43.991,271.255 43.732,270.854 43.354 C 270.453 42.976,270.059 42.667,269.979 42.667 C 269.899 42.667,269.852 42.600,269.875 42.519 C 269.898 42.438,269.523 41.992,269.042 41.529 C 268.560 41.065,268.167 40.713,268.167 40.746 C 268.167 40.780,267.867 40.519,267.500 40.167 C 267.133 39.814,266.833 39.477,266.833 39.418 C 266.833 39.229,267.289 38.845,267.392 38.948 C 267.446 39.002,267.561 38.867,267.648 38.648 C 267.734 38.429,268.036 38.100,268.319 37.917 C 268.601 37.733,268.839 37.433,268.846 37.250 C 268.854 37.067,268.897 37.010,268.943 37.124 C 269.039 37.361,269.500 36.993,269.500 36.679 C 269.500 36.580,269.617 36.500,269.760 36.500 C 269.903 36.500,269.973 36.425,269.917 36.333 C 269.860 36.242,269.879 36.167,269.960 36.167 C 270.193 36.167,271.421 35.005,271.375 34.827 C 271.352 34.739,271.427 34.667,271.542 34.667 C 271.798 34.667,272.667 33.770,272.667 33.505 C 272.667 33.400,272.733 33.355,272.814 33.405 C 273.012 33.527,273.364 33.090,273.207 32.916 C 273.139 32.841,273.169 32.829,273.274 32.889 C 273.379 32.949,273.733 32.699,274.065 32.331 C 274.396 31.965,274.667 31.706,274.667 31.756 C 274.667 31.806,274.771 31.750,274.898 31.632 C 275.066 31.476,275.077 31.383,274.940 31.294 C 274.812 31.212,274.832 31.170,275.000 31.165 C 275.313 31.157,276.526 30.081,276.383 29.938 C 276.325 29.881,276.382 29.833,276.509 29.833 C 276.753 29.833,277.500 29.053,277.500 28.798 C 277.500 28.715,277.570 28.690,277.655 28.743 C 277.740 28.795,277.857 28.687,277.916 28.502 C 277.975 28.318,278.111 28.166,278.220 28.165 C 278.537 28.163,279.682 26.992,279.560 26.795 C 279.494 26.688,279.526 26.663,279.641 26.734 C 279.754 26.804,279.833 26.750,279.833 26.603 C 279.833 26.466,279.920 26.299,280.026 26.234 C 280.156 26.154,280.173 26.191,280.079 26.349 C 280.003 26.478,280.254 26.283,280.637 25.917 C 281.020 25.550,281.333 25.156,281.333 25.042 C 281.333 24.927,281.437 24.833,281.563 24.833 C 281.943 24.833,285.215 21.713,285.074 21.485 C 285.020 21.397,285.037 21.336,285.113 21.349 C 285.503 21.417,285.694 21.310,285.603 21.075 C 285.548 20.932,285.575 20.860,285.662 20.914 C 285.877 21.047,286.542 20.363,286.440 20.115 C 286.382 19.972,286.356 19.976,286.346 20.130 M312.180 20.135 C 312.173 20.255,312.088 20.305,311.993 20.245 C 311.897 20.186,311.716 20.223,311.591 20.327 C 311.426 20.464,311.332 20.465,311.250 20.333 C 311.176 20.213,311.034 20.268,310.841 20.492 C 310.678 20.680,310.449 20.833,310.333 20.833 C 310.056 20.833,309.481 21.502,309.597 21.689 C 309.647 21.770,309.571 21.881,309.428 21.935 C 309.285 21.990,309.207 22.097,309.254 22.174 C 309.302 22.250,309.208 22.390,309.045 22.485 C 308.847 22.600,308.825 22.658,308.979 22.662 C 309.173 22.666,309.173 22.710,308.979 22.949 C 308.784 23.189,308.785 23.210,308.984 23.090 C 309.136 22.998,309.180 23.011,309.108 23.126 C 309.048 23.224,308.980 31.291,308.958 41.053 C 308.935 50.815,308.961 58.729,309.016 58.641 C 309.076 58.544,310.456 58.501,312.516 58.532 L 315.917 58.583 315.870 43.167 C 315.845 34.688,315.865 27.580,315.916 27.373 L 316.007 26.996 330.045 27.040 L 344.083 27.083 344.035 23.708 L 343.987 20.333 328.174 20.333 C 315.680 20.333,312.343 20.290,312.277 20.125 C 312.212 19.965,312.190 19.967,312.180 20.135 M349.791 39.417 L 349.832 58.750 353.332 58.795 L 356.833 58.840 356.833 39.462 L 356.833 20.083 353.292 20.083 L 349.750 20.083 349.791 39.417 M380.792 20.126 L 361.833 20.168 361.836 23.542 C 361.837 25.398,361.899 27.012,361.973 27.128 C 362.079 27.295,363.717 27.331,369.762 27.295 L 377.417 27.250 377.417 43.000 L 377.417 58.750 380.917 58.750 L 384.417 58.750 384.459 43.042 L 384.502 27.333 392.089 27.333 C 398.088 27.333,399.694 27.289,399.759 27.121 C 399.804 27.004,399.820 25.372,399.795 23.496 L 399.750 20.083 380.792 20.126 M78.134 20.339 C 77.795 20.397,77.413 20.531,77.285 20.638 C 77.157 20.744,77.003 20.781,76.943 20.721 C 76.883 20.660,76.833 20.696,76.833 20.800 C 76.833 20.904,76.721 20.946,76.583 20.894 C 76.446 20.841,76.333 20.865,76.333 20.947 C 76.333 21.029,76.197 21.106,76.030 21.119 C 75.550 21.155,74.333 21.728,74.333 21.918 C 74.333 22.013,74.058 22.239,73.720 22.420 C 72.995 22.811,71.407 24.449,71.440 24.774 C 71.453 24.898,71.401 25.000,71.326 25.000 C 71.251 25.000,71.141 25.151,71.083 25.336 C 71.024 25.520,70.906 25.628,70.820 25.575 C 70.734 25.522,70.635 25.577,70.598 25.698 C 70.562 25.818,70.475 26.067,70.406 26.250 C 70.337 26.433,70.298 26.685,70.318 26.808 C 70.339 26.932,70.278 26.985,70.183 26.927 C 70.088 26.868,69.975 26.992,69.932 27.202 C 69.835 27.679,69.638 28.504,69.542 28.833 C 69.502 28.971,69.446 29.421,69.418 29.833 C 69.390 30.246,69.353 30.583,69.337 30.583 C 69.321 30.583,69.295 30.827,69.279 31.125 C 69.263 31.423,69.311 31.667,69.385 31.667 C 69.459 31.667,69.465 31.755,69.398 31.863 C 69.254 32.096,69.304 33.653,69.464 33.907 C 69.525 34.004,69.600 34.271,69.631 34.500 C 69.662 34.729,69.761 34.943,69.851 34.975 C 69.950 35.010,69.938 35.124,69.820 35.266 C 69.668 35.450,69.681 35.500,69.882 35.500 C 70.031 35.500,70.119 35.622,70.093 35.792 C 70.034 36.184,70.326 37.000,70.526 37.000 C 70.614 37.000,70.645 37.067,70.594 37.149 C 70.543 37.231,70.614 37.341,70.751 37.394 C 70.888 37.447,71.000 37.623,71.000 37.787 C 71.000 37.951,71.375 38.482,71.833 38.967 C 72.292 39.453,72.668 39.903,72.669 39.967 C 72.671 40.090,73.880 40.917,73.967 40.855 C 73.995 40.835,74.145 40.974,74.301 41.163 C 74.456 41.352,74.765 41.541,74.988 41.583 C 75.210 41.625,75.446 41.747,75.513 41.854 C 75.579 41.961,75.746 42.005,75.884 41.952 C 76.023 41.899,76.268 42.002,76.432 42.184 C 76.595 42.364,76.825 42.475,76.942 42.430 C 77.060 42.385,77.203 42.423,77.260 42.515 C 77.328 42.626,77.436 42.622,77.579 42.504 C 77.738 42.371,77.822 42.396,77.899 42.598 C 77.981 42.810,78.055 42.828,78.236 42.678 C 78.413 42.531,78.485 42.537,78.539 42.701 C 78.597 42.873,80.502 42.925,87.993 42.958 C 97.038 42.997,98.486 43.072,98.760 43.516 C 98.819 43.611,98.988 43.643,99.137 43.586 C 99.285 43.529,99.356 43.533,99.294 43.595 C 99.232 43.657,99.440 43.937,99.757 44.218 C 100.074 44.498,100.333 44.827,100.333 44.947 C 100.333 45.068,100.408 45.167,100.500 45.167 C 100.592 45.167,100.667 45.317,100.667 45.500 C 100.667 45.683,100.760 45.834,100.875 45.836 C 101.013 45.838,100.999 45.892,100.833 45.997 C 100.646 46.116,100.627 46.231,100.755 46.453 C 101.082 47.019,100.833 49.027,100.356 49.672 C 99.954 50.216,99.902 50.412,100.208 50.228 C 100.348 50.144,100.341 50.197,100.186 50.387 C 100.059 50.543,99.867 50.651,99.759 50.627 C 99.651 50.603,99.380 50.771,99.156 51.000 C 98.747 51.420,98.603 51.468,97.454 51.566 C 97.108 51.596,96.776 51.668,96.718 51.727 C 96.496 51.948,69.867 51.848,69.777 51.625 C 69.731 51.510,69.687 53.029,69.680 55.000 L 69.667 58.583 83.091 58.540 C 92.203 58.510,96.619 58.552,96.841 58.671 C 97.086 58.802,97.167 58.792,97.169 58.631 C 97.171 58.499,97.219 58.481,97.294 58.583 C 97.362 58.675,97.567 58.739,97.750 58.726 C 97.933 58.713,98.182 58.694,98.302 58.684 C 98.430 58.674,98.468 58.581,98.395 58.458 C 98.296 58.295,98.322 58.293,98.515 58.449 C 98.674 58.578,98.847 58.593,99.006 58.493 C 99.140 58.408,99.419 58.337,99.625 58.336 C 99.831 58.334,100.000 58.277,100.000 58.208 C 100.001 58.140,100.239 58.067,100.529 58.046 C 100.820 58.026,101.101 57.951,101.154 57.879 C 101.207 57.808,101.362 57.725,101.500 57.695 C 101.638 57.665,101.862 57.543,102.000 57.423 C 102.138 57.304,102.419 57.155,102.625 57.092 C 102.831 57.029,103.000 56.908,103.000 56.822 C 103.000 56.737,103.117 56.667,103.260 56.667 C 103.414 56.667,103.471 56.588,103.401 56.474 C 103.328 56.356,103.355 56.327,103.472 56.399 C 103.577 56.464,103.827 56.363,104.029 56.175 C 104.231 55.987,104.452 55.833,104.520 55.833 C 104.588 55.833,104.692 55.683,104.750 55.500 C 104.808 55.317,104.931 55.167,105.023 55.167 C 105.263 55.167,105.667 54.729,105.667 54.469 C 105.667 54.347,105.815 54.154,105.995 54.042 C 106.350 53.820,107.098 52.435,106.777 52.595 C 106.670 52.648,106.720 52.580,106.886 52.444 C 107.053 52.308,107.193 52.134,107.199 52.057 C 107.212 51.871,107.326 51.504,107.516 51.029 C 107.601 50.816,107.632 50.579,107.584 50.502 C 107.537 50.425,107.580 50.334,107.680 50.301 C 107.787 50.265,107.873 49.713,107.889 48.955 C 107.904 48.247,107.969 47.668,108.032 47.668 C 108.096 47.667,108.115 47.498,108.074 47.292 C 108.034 47.085,107.985 46.710,107.965 46.458 C 107.945 46.206,107.884 46.000,107.830 46.000 C 107.775 46.000,107.750 45.625,107.773 45.167 C 107.796 44.708,107.761 44.333,107.694 44.333 C 107.589 44.333,107.504 43.932,107.457 43.216 C 107.450 43.105,107.346 42.976,107.225 42.930 C 107.104 42.884,107.050 42.731,107.103 42.591 C 107.161 42.442,107.090 42.294,106.934 42.234 C 106.787 42.177,106.667 42.025,106.667 41.895 C 106.667 41.598,105.839 40.333,105.645 40.333 C 105.565 40.333,105.500 40.179,105.500 39.990 C 105.500 39.801,105.444 39.681,105.375 39.723 C 105.217 39.818,104.820 39.402,104.948 39.274 C 105.000 39.222,104.848 39.090,104.610 38.982 C 104.372 38.873,104.217 38.721,104.265 38.642 C 104.313 38.564,104.250 38.500,104.123 38.500 C 103.997 38.500,103.641 38.275,103.333 38.000 C 103.025 37.725,102.681 37.500,102.567 37.500 C 102.454 37.500,102.332 37.414,102.297 37.308 C 102.262 37.202,102.087 37.100,101.908 37.081 C 101.486 37.036,100.942 36.812,100.821 36.633 C 100.769 36.556,100.469 36.458,100.154 36.417 C 99.840 36.375,99.192 36.239,98.715 36.113 C 98.237 35.988,97.890 35.956,97.943 36.043 C 97.996 36.129,97.883 36.116,97.690 36.013 C 97.443 35.880,94.777 35.829,88.617 35.838 C 79.552 35.851,78.557 35.781,78.131 35.105 C 78.066 35.002,77.925 34.917,77.819 34.917 C 77.713 34.917,77.429 34.658,77.188 34.343 C 76.947 34.027,76.862 33.833,77.000 33.913 C 77.178 34.016,77.166 33.961,76.958 33.724 C 76.798 33.540,76.667 33.303,76.667 33.195 C 76.667 33.088,76.602 33.000,76.523 33.000 C 76.444 33.000,76.417 32.805,76.463 32.566 C 76.514 32.299,76.456 32.075,76.314 31.985 C 76.187 31.904,76.158 31.837,76.250 31.835 C 76.342 31.833,76.432 31.513,76.450 31.124 C 76.494 30.185,77.222 28.463,77.657 28.269 C 77.846 28.185,78.000 28.002,78.000 27.863 C 78.000 27.725,78.049 27.660,78.109 27.720 C 78.168 27.779,78.324 27.698,78.454 27.539 C 78.596 27.367,78.640 27.351,78.564 27.500 C 78.457 27.708,78.479 27.715,78.697 27.539 C 78.840 27.423,79.092 27.379,79.256 27.442 C 79.461 27.521,79.517 27.496,79.434 27.362 C 79.358 27.239,79.440 27.159,79.657 27.146 C 79.846 27.134,80.075 27.106,80.167 27.083 C 80.258 27.060,85.771 27.032,92.417 27.021 L 104.500 27.000 104.500 23.625 L 104.500 20.250 91.750 20.250 C 83.363 20.250,78.999 20.307,78.997 20.417 C 78.996 20.521,78.949 20.518,78.872 20.409 C 78.800 20.306,78.496 20.278,78.134 20.339 M110.465 23.681 C 110.438 25.614,110.448 27.226,110.486 27.264 C 110.524 27.302,113.956 27.333,118.111 27.333 L 125.667 27.333 125.667 42.997 L 125.667 58.660 126.042 58.752 C 126.248 58.803,127.879 58.823,129.667 58.797 L 132.917 58.750 132.959 43.042 L 133.002 27.333 140.668 27.333 L 148.333 27.333 148.333 23.750 L 148.333 20.167 129.423 20.167 L 110.513 20.167 110.465 23.681 M246.000 39.417 L 246.000 58.583 249.583 58.583 L 253.167 58.583 253.167 39.417 L 253.167 20.250 249.583 20.250 L 246.000 20.250 246.000 39.417 M172.875 26.715 C 176.619 26.738,178.687 26.691,178.723 26.583 C 178.759 26.478,178.865 26.485,179.015 26.605 C 179.221 26.770,180.886 27.314,181.457 27.404 C 181.571 27.421,181.909 27.619,182.207 27.843 C 182.506 28.067,182.834 28.251,182.936 28.253 C 183.132 28.255,184.333 29.391,184.333 29.574 C 184.333 29.633,184.517 29.879,184.741 30.121 C 184.965 30.363,185.111 30.622,185.065 30.697 C 185.018 30.772,185.057 30.833,185.150 30.833 C 185.244 30.833,185.414 31.152,185.529 31.542 C 185.644 31.931,185.835 32.350,185.954 32.472 C 186.073 32.594,186.125 32.766,186.071 32.854 C 186.016 32.942,186.062 33.124,186.173 33.257 C 186.284 33.391,186.323 33.500,186.261 33.500 C 186.198 33.500,186.202 33.589,186.269 33.697 C 186.412 33.928,186.389 44.442,186.245 44.675 C 186.191 44.762,186.245 44.834,186.365 44.836 C 186.542 44.838,186.541 44.865,186.361 44.980 C 186.238 45.057,186.145 45.168,186.152 45.227 C 186.219 45.723,186.126 46.184,185.917 46.393 C 185.779 46.530,185.667 46.836,185.667 47.071 C 185.667 47.307,185.592 47.500,185.500 47.500 C 185.408 47.500,185.333 47.654,185.333 47.843 C 185.333 48.061,185.263 48.143,185.140 48.067 C 185.008 47.985,184.977 48.061,185.042 48.308 C 185.093 48.505,185.074 48.629,185.000 48.583 C 184.856 48.495,184.000 49.424,184.000 49.668 C 184.000 49.747,183.852 49.858,183.670 49.916 C 183.489 49.973,183.357 50.103,183.378 50.204 C 183.399 50.305,183.236 50.433,183.015 50.489 C 182.795 50.545,182.556 50.739,182.485 50.921 C 182.415 51.102,182.351 51.159,182.345 51.049 C 182.338 50.919,182.020 51.006,181.458 51.291 C 180.977 51.535,180.475 51.753,180.343 51.774 C 180.211 51.796,179.911 51.867,179.676 51.934 C 179.442 52.000,179.149 52.037,179.025 52.016 C 178.901 51.995,178.849 52.058,178.910 52.156 C 179.045 52.375,178.818 52.383,178.278 52.177 C 178.052 52.091,177.831 52.058,177.786 52.103 C 177.487 52.402,165.828 52.110,164.703 51.776 C 164.241 51.639,163.806 51.577,163.738 51.638 C 163.669 51.700,163.667 51.656,163.733 51.542 C 163.800 51.426,163.767 51.333,163.661 51.333 C 163.555 51.333,163.250 51.178,162.984 50.989 C 162.718 50.799,162.500 50.698,162.500 50.764 C 162.500 50.830,162.344 50.704,162.153 50.484 C 161.962 50.264,161.737 50.074,161.653 50.063 C 161.569 50.051,161.406 50.031,161.292 50.018 C 161.134 50.001,161.138 49.960,161.308 49.853 C 161.472 49.748,161.395 49.663,161.016 49.531 C 160.732 49.432,160.500 49.305,160.500 49.249 C 160.500 49.193,160.594 49.202,160.708 49.269 C 160.823 49.336,160.791 49.246,160.637 49.070 C 160.483 48.894,160.333 48.675,160.304 48.583 C 160.274 48.492,160.194 48.435,160.125 48.458 C 160.056 48.481,160.012 48.444,160.027 48.375 C 160.042 48.306,159.961 48.025,159.849 47.750 C 159.736 47.475,159.648 47.232,159.653 47.210 C 159.658 47.187,159.505 46.888,159.312 46.545 C 159.119 46.202,158.940 45.620,158.915 45.252 C 158.818 43.869,158.805 34.347,158.899 34.195 C 158.953 34.107,158.971 33.803,158.937 33.518 C 158.904 33.233,158.950 33.000,159.040 33.000 C 159.129 33.000,159.158 32.884,159.103 32.741 C 159.046 32.593,159.074 32.526,159.169 32.585 C 159.259 32.641,159.333 32.578,159.333 32.446 C 159.333 32.313,159.445 31.990,159.582 31.727 C 159.719 31.465,159.832 31.119,159.832 30.958 C 159.833 30.798,159.908 30.667,160.000 30.667 C 160.092 30.667,160.167 30.521,160.167 30.342 C 160.167 30.158,160.356 29.924,160.606 29.801 C 160.848 29.681,161.017 29.520,160.981 29.443 C 160.946 29.366,161.123 29.195,161.375 29.063 C 161.627 28.931,161.833 28.755,161.833 28.673 C 161.833 28.590,161.989 28.473,162.179 28.413 C 162.369 28.352,162.483 28.261,162.432 28.210 C 162.296 28.074,162.867 27.678,163.208 27.672 C 163.369 27.669,163.500 27.587,163.500 27.490 C 163.500 27.393,163.578 27.362,163.674 27.421 C 163.770 27.480,164.039 27.404,164.272 27.251 C 164.505 27.098,164.738 27.016,164.791 27.069 C 164.843 27.121,164.976 27.089,165.086 26.998 C 165.195 26.907,165.524 26.805,165.816 26.771 C 166.108 26.737,166.386 26.670,166.433 26.623 C 166.480 26.575,166.646 26.568,166.801 26.608 C 166.956 26.647,169.690 26.695,172.875 26.715 M318.667 39.417 L 318.667 43.002 329.792 42.960 L 340.917 42.917 340.917 39.417 L 340.917 35.917 329.792 35.874 L 318.667 35.831 318.667 39.417 M20.681 40.658 C 20.561 40.732,20.303 40.763,20.107 40.728 C 19.910 40.692,20.004 40.781,20.314 40.924 C 20.624 41.068,20.984 41.145,21.114 41.095 C 21.245 41.044,21.305 41.077,21.249 41.169 C 21.160 41.313,21.225 41.344,21.585 41.330 C 21.632 41.328,21.894 41.443,22.168 41.584 C 22.442 41.726,22.667 41.791,22.667 41.728 C 22.667 41.666,22.804 41.739,22.972 41.891 C 23.140 42.043,23.327 42.117,23.389 42.056 C 23.450 41.995,23.500 42.026,23.500 42.126 C 23.500 42.226,23.762 42.394,24.083 42.500 C 24.404 42.606,24.667 42.766,24.667 42.856 C 24.667 42.946,24.736 42.977,24.821 42.924 C 24.906 42.872,25.023 42.976,25.080 43.156 C 25.139 43.341,25.281 43.446,25.408 43.397 C 25.532 43.349,25.690 43.402,25.759 43.514 C 25.845 43.653,25.810 43.679,25.651 43.596 C 25.420 43.476,25.821 43.842,26.701 44.552 C 26.949 44.753,27.156 44.983,27.160 45.064 C 27.169 45.270,28.042 46.000,28.278 46.000 C 28.386 46.000,28.521 46.216,28.579 46.480 C 28.637 46.745,28.906 47.158,29.176 47.398 C 29.446 47.639,29.667 47.940,29.667 48.067 C 29.667 48.194,29.790 48.345,29.941 48.403 C 30.091 48.461,30.170 48.553,30.115 48.607 C 30.061 48.662,30.125 48.816,30.259 48.950 C 30.393 49.084,30.466 49.254,30.420 49.328 C 30.374 49.402,30.449 49.555,30.585 49.668 C 30.902 49.931,30.910 50.352,30.596 50.232 C 30.348 50.137,29.550 50.816,29.629 51.054 C 29.654 51.130,29.611 51.152,29.533 51.104 C 29.454 51.055,29.134 51.223,28.820 51.475 C 27.856 52.253,25.843 52.041,26.515 51.232 C 26.664 51.053,26.655 50.999,26.479 50.997 C 26.337 50.996,26.315 50.948,26.421 50.872 C 26.514 50.805,26.596 50.482,26.601 50.154 C 26.606 49.827,26.665 49.470,26.732 49.363 C 26.799 49.255,26.768 49.167,26.665 49.167 C 26.549 49.167,26.571 49.072,26.719 48.924 C 27.421 48.222,26.640 46.181,25.697 46.251 C 25.489 46.266,25.285 46.223,25.243 46.155 C 25.137 45.983,24.500 46.168,24.500 46.371 C 24.500 46.461,24.384 46.491,24.241 46.436 C 24.093 46.379,24.026 46.407,24.085 46.502 C 24.184 46.662,23.964 46.734,23.542 46.679 C 23.427 46.664,23.333 46.714,23.333 46.790 C 23.333 46.866,23.202 46.934,23.042 46.941 C 22.881 46.948,22.188 47.074,21.500 47.220 C 20.813 47.367,19.852 47.538,19.365 47.600 C 17.631 47.820,18.805 48.012,21.868 48.008 L 24.957 48.005 25.044 48.544 C 25.091 48.841,25.097 49.590,25.055 50.208 C 24.999 51.062,25.033 51.334,25.199 51.336 C 25.368 51.338,25.364 51.372,25.184 51.486 C 25.056 51.567,24.998 51.734,25.056 51.858 C 25.333 52.458,25.934 53.369,26.015 53.313 C 26.066 53.278,26.244 53.387,26.412 53.555 C 26.579 53.722,26.855 53.823,27.025 53.779 C 27.195 53.734,27.333 53.766,27.333 53.849 C 27.333 53.932,27.638 54.000,28.010 54.000 C 28.507 54.000,28.653 53.945,28.561 53.792 C 28.463 53.628,28.489 53.626,28.683 53.783 C 28.909 53.966,29.162 53.960,30.583 53.745 C 30.767 53.717,30.917 53.680,30.917 53.662 C 30.917 53.644,31.142 53.611,31.417 53.589 C 31.692 53.568,32.079 53.498,32.278 53.435 C 32.479 53.371,32.687 53.398,32.747 53.496 C 32.807 53.593,33.207 53.663,33.636 53.653 C 34.066 53.642,34.736 53.750,35.127 53.893 C 35.518 54.036,35.874 54.156,35.919 54.160 C 35.964 54.164,36.019 54.173,36.042 54.181 C 36.136 54.212,36.937 54.347,37.196 54.375 C 37.350 54.391,37.439 54.464,37.395 54.536 C 37.350 54.608,37.456 54.667,37.629 54.667 C 37.803 54.667,38.001 54.723,38.069 54.792 C 38.138 54.860,38.282 54.920,38.389 54.924 C 38.496 54.928,38.565 55.021,38.543 55.130 C 38.520 55.238,38.684 55.373,38.906 55.429 C 39.128 55.484,39.350 55.636,39.399 55.765 C 39.449 55.894,39.604 56.000,39.745 56.000 C 39.885 56.000,39.981 56.094,39.958 56.208 C 39.935 56.323,40.010 56.398,40.125 56.375 C 40.240 56.352,40.333 56.408,40.333 56.500 C 40.333 56.592,40.446 56.667,40.583 56.667 C 40.721 56.667,40.833 56.779,40.833 56.917 C 40.833 57.054,40.946 57.167,41.083 57.167 C 41.221 57.167,41.333 57.240,41.333 57.330 C 41.333 57.420,41.596 57.764,41.917 58.095 C 42.237 58.425,42.500 58.764,42.500 58.848 C 42.500 58.931,42.575 59.000,42.667 59.000 C 42.860 59.000,43.499 59.607,43.501 59.792 C 43.515 60.910,44.778 63.157,45.234 62.875 C 45.317 62.824,45.335 62.863,45.273 62.963 C 45.212 63.062,45.232 63.188,45.319 63.241 C 45.406 63.295,45.517 63.274,45.567 63.194 C 45.675 63.018,45.310 62.000,45.138 62.000 C 45.070 62.000,44.966 61.737,44.906 61.417 C 44.845 61.096,44.736 60.833,44.663 60.833 C 44.589 60.833,44.549 60.650,44.574 60.426 C 44.634 59.878,44.206 59.035,43.803 58.907 C 43.622 58.850,43.512 58.766,43.557 58.721 C 43.647 58.631,41.639 56.583,41.460 56.583 C 41.285 56.583,40.854 55.935,40.938 55.798 C 41.016 55.672,40.542 54.647,40.337 54.500 C 40.047 54.292,40.040 53.657,40.326 53.504 C 40.489 53.416,40.670 53.392,40.728 53.450 C 40.786 53.508,40.833 53.464,40.833 53.351 C 40.833 53.239,40.908 53.193,41.000 53.250 C 41.092 53.307,41.167 53.274,41.167 53.177 C 41.167 53.079,41.311 53.000,41.486 53.000 C 41.885 53.000,42.830 52.475,42.835 52.250 C 42.837 52.158,42.904 52.187,42.985 52.314 C 43.101 52.499,43.169 52.473,43.321 52.189 C 43.534 51.791,43.567 51.805,42.313 51.748 C 41.889 51.728,41.458 51.660,41.354 51.596 C 41.251 51.533,41.167 51.557,41.167 51.652 C 41.167 51.746,41.055 51.780,40.918 51.727 C 40.781 51.675,40.702 51.577,40.744 51.510 C 40.785 51.444,40.728 51.385,40.618 51.381 C 40.323 51.370,38.989 50.734,39.076 50.647 C 39.117 50.606,39.186 50.087,39.230 49.494 C 39.323 48.247,39.348 48.116,39.649 47.333 C 40.195 45.911,40.522 45.361,41.318 44.527 C 41.785 44.038,42.167 43.524,42.167 43.384 C 42.167 43.221,42.261 43.167,42.432 43.233 C 42.611 43.301,42.727 43.222,42.787 42.991 C 42.838 42.799,42.972 42.684,43.093 42.730 C 43.211 42.776,43.501 42.620,43.737 42.384 C 43.973 42.148,44.167 42.009,44.167 42.077 C 44.167 42.144,44.579 41.966,45.083 41.681 C 45.587 41.397,46.001 41.221,46.003 41.290 C 46.004 41.360,46.078 41.304,46.167 41.167 C 46.256 41.029,46.329 41.002,46.331 41.105 C 46.333 41.242,46.506 41.235,46.952 41.081 C 47.903 40.755,47.776 40.583,46.583 40.583 C 45.987 40.583,45.500 40.621,45.500 40.667 C 45.499 40.712,45.218 40.769,44.875 40.791 C 43.759 40.866,43.100 41.005,42.984 41.193 C 42.922 41.294,42.787 41.325,42.685 41.262 C 42.583 41.199,42.500 41.231,42.500 41.333 C 42.500 41.436,42.425 41.473,42.333 41.417 C 42.242 41.360,42.167 41.393,42.167 41.490 C 42.167 41.587,41.991 41.667,41.776 41.667 C 41.561 41.667,41.167 41.775,40.901 41.906 C 40.634 42.038,40.210 42.224,39.958 42.319 C 39.706 42.414,39.500 42.573,39.500 42.672 C 39.500 42.772,39.428 42.808,39.339 42.754 C 39.251 42.699,39.026 42.807,38.839 42.994 C 38.653 43.181,38.462 43.333,38.416 43.332 C 38.217 43.330,37.667 43.762,37.667 43.921 C 37.667 44.017,37.503 44.108,37.303 44.123 C 37.103 44.138,36.874 44.267,36.795 44.409 C 36.715 44.551,36.560 44.667,36.450 44.668 C 36.209 44.670,35.000 45.789,35.000 46.010 C 35.000 46.096,34.906 46.148,34.792 46.125 C 34.677 46.102,34.594 46.215,34.606 46.375 C 34.638 46.777,34.575 46.750,33.934 46.090 C 33.627 45.773,33.316 45.567,33.244 45.632 C 33.172 45.697,33.170 45.652,33.238 45.533 C 33.428 45.205,29.580 42.161,29.140 42.292 C 29.063 42.315,29.000 42.258,29.000 42.167 C 29.000 42.075,28.887 42.000,28.750 42.000 C 28.613 42.000,28.500 41.916,28.500 41.813 C 28.500 41.685,28.420 41.692,28.246 41.836 C 28.037 42.010,28.009 42.004,28.087 41.801 C 28.177 41.565,28.120 41.539,27.375 41.475 C 27.215 41.461,27.046 41.402,27.000 41.344 C 26.767 41.047,25.520 40.713,25.323 40.894 C 25.167 41.038,25.147 41.031,25.240 40.867 C 25.332 40.704,25.185 40.654,24.640 40.661 C 24.242 40.666,23.373 40.633,22.708 40.588 C 21.944 40.536,21.500 40.568,21.500 40.675 C 21.500 40.787,21.398 40.790,21.199 40.684 C 21.034 40.596,20.801 40.584,20.681 40.658 M131.042 58.624 C 130.102 58.654,128.565 58.654,127.625 58.624 C 126.685 58.595,127.454 58.570,129.333 58.570 C 131.212 58.570,131.981 58.595,131.042 58.624 M355.051 58.624 C 354.116 58.654,352.541 58.654,351.551 58.624 C 350.560 58.595,351.325 58.571,353.250 58.571 C 355.175 58.570,355.985 58.595,355.051 58.624 M382.717 58.624 C 381.783 58.654,380.208 58.654,379.217 58.624 C 378.227 58.595,378.992 58.571,380.917 58.571 C 382.842 58.570,383.652 58.595,382.717 58.624 " stroke="none" fill="#e4c404" fill-rule="evenodd"></path><path id="path1" d="M24.667 0.228 C 24.667 0.349,25.507 0.458,25.576 0.346 C 25.613 0.285,25.424 0.219,25.155 0.199 C 24.886 0.178,24.667 0.191,24.667 0.228 M35.000 1.000 C 35.000 1.092,35.056 1.158,35.125 1.147 C 35.194 1.136,35.287 1.142,35.333 1.160 C 35.379 1.178,35.539 1.216,35.688 1.245 C 35.837 1.274,36.137 1.343,36.354 1.397 C 36.572 1.452,36.450 1.350,36.083 1.170 C 35.340 0.804,35.000 0.751,35.000 1.000 M14.830 3.754 C 14.508 4.142,14.738 4.215,15.082 3.834 C 15.249 3.650,15.308 3.500,15.213 3.500 C 15.118 3.500,14.946 3.614,14.830 3.754 M33.000 3.667 C 32.798 3.797,32.822 3.829,33.125 3.831 C 33.331 3.832,33.500 3.758,33.500 3.667 C 33.500 3.458,33.323 3.458,33.000 3.667 M11.957 5.687 C 11.797 5.777,11.667 5.973,11.667 6.123 C 11.667 6.344,11.734 6.324,12.017 6.020 C 12.414 5.594,12.387 5.447,11.957 5.687 M8.362 9.219 C 7.956 9.651,7.907 9.833,8.194 9.833 C 8.301 9.833,8.340 9.784,8.279 9.724 C 8.143 9.587,8.493 9.143,8.658 9.245 C 8.724 9.285,8.778 9.209,8.778 9.076 C 8.778 8.768,8.791 8.763,8.362 9.219 M10.272 11.754 C 10.192 11.961,10.235 11.975,10.504 11.831 C 10.890 11.625,10.927 11.500,10.601 11.500 C 10.473 11.500,10.325 11.614,10.272 11.754 M50.935 13.588 C 51.084 13.815,51.290 13.994,51.394 13.987 C 51.515 13.978,51.508 13.943,51.375 13.890 C 51.260 13.843,51.167 13.707,51.167 13.587 C 51.167 13.467,51.054 13.326,50.916 13.273 C 50.703 13.191,50.706 13.238,50.935 13.588 M79.833 20.167 C 80.488 20.369,104.291 20.370,104.417 20.167 C 104.488 20.051,100.493 20.003,91.969 20.017 C 85.065 20.028,79.604 20.095,79.833 20.167 M110.371 23.542 L 110.410 27.083 110.458 23.626 L 110.507 20.168 129.545 20.125 L 148.583 20.082 129.458 20.041 L 110.333 20.000 110.371 23.542 M204.000 20.167 C 204.000 20.276,208.556 20.333,217.333 20.333 C 226.111 20.333,230.667 20.276,230.667 20.167 C 230.667 20.057,226.111 20.000,217.333 20.000 C 208.556 20.000,204.000 20.057,204.000 20.167 M246.083 20.167 C 246.147 20.269,247.498 20.333,249.583 20.333 C 251.668 20.333,253.020 20.269,253.083 20.167 C 253.151 20.058,251.943 20.000,249.583 20.000 C 247.224 20.000,246.016 20.058,246.083 20.167 M276.667 20.167 C 276.667 20.274,278.389 20.333,281.500 20.333 C 284.611 20.333,286.333 20.274,286.333 20.167 C 286.333 20.059,284.611 20.000,281.500 20.000 C 278.389 20.000,276.667 20.059,276.667 20.167 M312.333 20.167 C 312.333 20.277,317.722 20.333,328.167 20.333 L 344.000 20.333 344.000 23.667 L 344.000 27.000 330.003 27.000 L 316.006 27.000 315.916 27.375 C 315.866 27.581,315.846 34.688,315.872 43.167 L 315.918 58.583 315.959 42.958 L 316.000 27.333 329.896 27.333 C 341.575 27.333,343.823 27.296,343.985 27.101 C 344.119 26.940,344.173 25.814,344.160 23.434 L 344.142 20.000 328.238 20.000 C 317.746 20.000,312.333 20.057,312.333 20.167 M351.551 20.124 C 352.541 20.154,354.116 20.154,355.051 20.124 C 355.985 20.095,355.175 20.070,353.250 20.071 C 351.325 20.071,350.560 20.095,351.551 20.124 M371.375 20.125 C 376.577 20.149,385.090 20.149,390.292 20.125 C 395.494 20.101,391.238 20.081,380.833 20.081 C 370.429 20.081,366.173 20.101,371.375 20.125 M399.798 23.750 C 399.772 25.721,399.806 27.334,399.875 27.333 C 399.944 27.333,400.000 25.721,400.000 23.750 C 400.000 21.779,399.965 20.167,399.923 20.167 C 399.881 20.167,399.824 21.779,399.798 23.750 M148.404 23.667 C 148.404 25.546,148.428 26.315,148.458 25.375 C 148.487 24.435,148.487 22.898,148.458 21.958 C 148.428 21.019,148.404 21.787,148.404 23.667 M349.710 39.583 L 349.672 58.750 353.211 58.667 L 356.750 58.584 353.292 58.539 L 349.835 58.493 349.791 39.455 L 349.747 20.417 349.710 39.583 M5.839 20.990 C 5.724 21.205,5.722 21.348,5.833 21.416 C 5.925 21.473,6.006 21.459,6.013 21.385 C 6.020 21.311,6.051 21.119,6.081 20.958 C 6.155 20.575,6.054 20.588,5.839 20.990 M159.350 21.620 C 159.009 21.788,158.872 21.930,159.008 21.975 C 159.132 22.016,159.262 21.964,159.297 21.858 C 159.332 21.753,159.463 21.667,159.587 21.667 C 159.712 21.667,159.860 21.592,159.917 21.500 C 160.051 21.283,160.021 21.290,159.350 21.620 M73.917 22.036 C 73.553 22.246,72.988 22.766,73.253 22.646 C 73.943 22.335,74.333 22.092,74.333 21.973 C 74.333 21.799,74.324 21.801,73.917 22.036 M42.465 22.588 C 42.413 22.769,42.320 23.067,42.258 23.250 C 42.196 23.433,42.267 23.373,42.417 23.115 C 42.566 22.857,42.659 22.559,42.623 22.453 C 42.588 22.346,42.516 22.407,42.465 22.588 M308.892 22.911 C 308.943 23.046,308.914 23.200,308.826 23.254 C 308.726 23.316,308.667 29.960,308.667 41.020 C 308.667 52.909,308.722 58.652,308.836 58.582 C 308.948 58.513,309.003 52.612,309.000 40.947 C 308.998 31.305,309.002 23.379,309.011 23.333 C 309.019 23.287,309.051 23.119,309.081 22.958 C 309.112 22.798,309.061 22.667,308.967 22.667 C 308.874 22.667,308.840 22.777,308.892 22.911 M72.441 23.242 C 72.198 23.467,72.000 23.706,72.000 23.773 C 72.000 23.841,72.225 23.680,72.500 23.417 C 72.775 23.153,73.000 22.914,73.000 22.885 C 73.000 22.765,72.857 22.856,72.441 23.242 M157.143 23.177 L 156.750 23.520 157.250 23.227 C 157.908 22.842,157.918 22.833,157.713 22.833 C 157.616 22.833,157.360 22.988,157.143 23.177 M272.051 24.455 C 271.667 24.888,271.382 25.271,271.419 25.308 C 271.527 25.416,272.667 24.277,272.667 24.061 C 272.667 23.951,272.760 23.823,272.875 23.777 C 272.990 23.731,273.008 23.688,272.917 23.681 C 272.825 23.674,272.436 24.023,272.051 24.455 M71.167 24.817 C 71.167 24.911,71.016 25.127,70.832 25.299 C 70.573 25.541,70.554 25.611,70.748 25.611 C 70.887 25.611,71.000 25.554,71.000 25.484 C 71.000 25.414,71.113 25.244,71.251 25.106 C 71.407 24.950,71.439 24.815,71.335 24.751 C 71.242 24.694,71.167 24.723,71.167 24.817 M281.625 24.782 C 281.465 24.823,281.333 24.964,281.333 25.094 C 281.333 25.281,281.402 25.271,281.667 25.045 C 281.953 24.800,282.098 24.621,281.958 24.686 C 281.935 24.697,281.785 24.740,281.625 24.782 M279.911 26.342 C 279.753 26.598,279.970 26.763,280.184 26.549 C 280.304 26.430,280.307 26.336,280.193 26.266 C 280.099 26.208,279.973 26.242,279.911 26.342 M166.310 26.685 C 166.156 26.782,166.257 26.829,166.625 26.831 C 166.923 26.832,167.167 26.805,167.167 26.769 C 167.167 26.618,166.517 26.553,166.310 26.685 M238.785 26.833 C 238.737 27.016,238.766 27.208,238.849 27.260 C 238.932 27.311,239.000 27.161,239.000 26.927 C 239.000 26.416,238.905 26.375,238.785 26.833 M80.000 27.171 C 80.000 27.399,104.277 27.393,104.418 27.165 C 104.488 27.051,100.493 26.998,92.261 27.002 C 84.412 27.006,80.000 27.067,80.000 27.171 M207.434 27.264 C 207.379 27.409,207.333 34.496,207.333 43.014 L 207.333 58.500 203.917 58.500 C 201.750 58.500,200.500 58.561,200.500 58.667 C 200.500 58.979,207.278 58.883,207.399 58.570 C 207.454 58.425,207.500 51.337,207.500 42.820 L 207.500 27.333 219.375 27.317 C 225.906 27.308,231.063 27.240,230.833 27.167 C 229.940 26.881,207.546 26.973,207.434 27.264 M162.593 27.922 C 162.177 28.237,162.331 28.235,162.939 27.918 C 163.202 27.781,163.304 27.671,163.167 27.673 C 163.029 27.675,162.771 27.787,162.593 27.922 M46.123 28.773 C 45.991 28.982,46.445 29.444,46.615 29.274 C 46.674 29.215,46.640 29.167,46.540 29.167 C 46.440 29.167,46.332 29.035,46.300 28.875 C 46.262 28.684,46.201 28.649,46.123 28.773 M183.500 28.719 C 183.500 28.893,184.147 29.577,184.227 29.488 C 184.261 29.449,184.112 29.231,183.895 29.004 C 183.678 28.776,183.500 28.648,183.500 28.719 M239.066 31.000 C 239.066 32.329,239.092 32.873,239.124 32.208 C 239.155 31.544,239.155 30.456,239.124 29.792 C 239.092 29.127,239.066 29.671,239.066 31.000 M267.274 29.242 C 267.032 29.467,266.833 29.729,266.833 29.825 C 266.833 29.921,266.702 30.006,266.542 30.013 C 266.357 30.022,266.329 30.058,266.465 30.113 C 266.665 30.193,267.110 29.821,267.649 29.125 C 267.971 28.708,267.789 28.765,267.274 29.242 M160.224 30.091 C 160.170 30.232,160.172 30.394,160.229 30.452 C 160.287 30.509,160.333 30.426,160.333 30.268 C 160.333 30.110,160.403 30.023,160.488 30.076 C 160.574 30.129,160.691 30.096,160.748 30.003 C 160.806 29.910,160.734 29.833,160.588 29.833 C 160.442 29.833,160.278 29.949,160.224 30.091 M275.576 30.845 C 275.515 30.943,275.305 31.088,275.108 31.168 C 274.864 31.266,274.834 31.316,275.016 31.323 C 275.162 31.329,275.417 31.183,275.583 31.000 C 275.749 30.817,275.840 30.667,275.786 30.667 C 275.731 30.667,275.637 30.747,275.576 30.845 M151.768 32.764 C 151.629 33.125,151.640 33.582,151.784 33.438 C 151.916 33.306,152.050 32.500,151.940 32.500 C 151.901 32.500,151.823 32.619,151.768 32.764 M263.500 32.948 C 263.271 33.175,263.082 33.411,263.081 33.472 C 263.079 33.533,263.014 33.696,262.936 33.833 C 262.791 34.090,263.568 33.312,263.979 32.791 C 264.317 32.361,263.981 32.471,263.500 32.948 M46.484 33.471 C 46.586 33.660,46.751 33.865,46.851 33.927 C 46.982 34.008,46.981 33.943,46.849 33.696 C 46.748 33.507,46.583 33.301,46.482 33.239 C 46.352 33.158,46.352 33.224,46.484 33.471 M50.328 33.289 C 50.462 33.342,50.710 33.542,50.879 33.734 C 51.181 34.077,51.181 34.075,50.907 33.625 C 50.754 33.373,50.506 33.173,50.356 33.180 C 50.134 33.191,50.129 33.211,50.328 33.289 M193.293 33.583 C 193.336 33.813,193.401 34.000,193.436 34.000 C 193.471 34.000,193.500 33.813,193.500 33.583 C 193.500 33.354,193.435 33.167,193.356 33.167 C 193.277 33.167,193.249 33.354,193.293 33.583 M47.580 34.829 C 47.838 35.115,48.167 35.152,48.167 34.897 C 48.167 34.851,48.091 34.860,47.999 34.917 C 47.907 34.974,47.786 34.904,47.731 34.761 C 47.676 34.617,47.552 34.500,47.456 34.500 C 47.360 34.500,47.416 34.648,47.580 34.829 M193.405 39.417 C 193.405 41.525,193.429 42.365,193.458 41.282 C 193.487 40.200,193.487 38.475,193.458 37.449 C 193.428 36.423,193.405 37.308,193.405 39.417 M99.238 36.147 C 99.287 36.227,99.498 36.336,99.706 36.388 C 100.070 36.480,100.072 36.475,99.760 36.242 C 99.402 35.974,99.097 35.918,99.238 36.147 M48.904 36.449 C 48.929 36.615,49.004 36.737,49.071 36.722 C 49.325 36.665,49.334 36.542,49.101 36.348 C 48.905 36.185,48.868 36.204,48.904 36.449 M268.000 38.167 C 267.771 38.346,267.665 38.494,267.766 38.496 C 267.866 38.498,268.084 38.350,268.250 38.167 C 268.630 37.747,268.537 37.747,268.000 38.167 M210.200 42.542 C 210.233 46.125,210.295 45.711,210.374 41.375 C 210.397 40.068,210.360 39.000,210.292 39.000 C 210.223 39.000,210.182 40.594,210.200 42.542 M24.000 40.667 C 24.000 40.862,24.128 40.862,24.583 40.667 C 24.879 40.540,24.864 40.522,24.458 40.512 C 24.206 40.505,24.000 40.575,24.000 40.667 M44.333 40.620 C 43.545 40.762,43.651 40.949,44.450 40.826 C 44.890 40.759,45.318 40.744,45.401 40.794 C 45.484 40.844,45.498 40.798,45.433 40.692 C 45.313 40.498,45.094 40.484,44.333 40.620 M236.270 41.254 C 235.861 41.663,235.947 41.896,236.363 41.508 C 236.562 41.322,236.684 41.128,236.633 41.077 C 236.582 41.026,236.418 41.106,236.270 41.254 M11.667 41.554 C 11.667 41.716,12.348 42.374,12.430 42.292 C 12.468 42.254,12.311 42.048,12.083 41.833 C 11.854 41.618,11.667 41.492,11.667 41.554 M23.667 42.429 C 23.667 42.542,24.532 42.856,24.615 42.774 C 24.653 42.736,24.455 42.625,24.175 42.528 C 23.895 42.430,23.667 42.386,23.667 42.429 M77.106 42.536 C 77.152 42.611,77.254 42.632,77.333 42.583 C 77.412 42.535,77.524 42.571,77.582 42.664 C 77.734 42.911,78.004 42.872,77.906 42.617 C 77.861 42.498,77.643 42.400,77.422 42.400 C 77.202 42.400,77.059 42.461,77.106 42.536 M8.597 42.811 C 8.548 42.890,8.659 43.093,8.844 43.260 C 9.142 43.529,9.169 43.532,9.073 43.282 C 9.013 43.127,8.893 43.000,8.806 43.000 C 8.718 43.000,8.693 42.925,8.750 42.833 C 8.807 42.742,8.816 42.667,8.770 42.667 C 8.724 42.667,8.646 42.732,8.597 42.811 M25.333 43.466 C 25.333 43.554,25.440 43.714,25.570 43.822 C 25.760 43.980,25.798 43.961,25.764 43.727 C 25.719 43.421,25.333 43.187,25.333 43.466 M14.667 44.339 C 14.667 44.427,14.784 44.500,14.927 44.500 C 15.069 44.500,15.143 44.570,15.090 44.655 C 15.038 44.740,15.072 44.858,15.167 44.917 C 15.261 44.975,15.289 45.112,15.228 45.220 C 15.145 45.368,15.169 45.370,15.324 45.226 C 15.476 45.086,15.484 44.948,15.353 44.704 C 15.159 44.342,14.667 44.079,14.667 44.339 M262.347 44.579 C 262.703 45.075,263.493 45.833,263.653 45.833 C 263.731 45.833,263.834 45.983,263.882 46.167 C 263.930 46.350,264.051 46.500,264.151 46.500 C 264.473 46.500,264.346 46.201,263.875 45.847 C 263.623 45.658,263.123 45.221,262.764 44.877 C 262.405 44.532,262.218 44.398,262.347 44.579 M10.594 44.910 C 10.904 45.382,11.000 45.433,11.000 45.123 C 11.000 45.008,10.846 44.818,10.659 44.700 C 10.325 44.492,10.324 44.497,10.594 44.910 M231.333 45.000 C 231.111 45.144,231.111 45.162,231.333 45.162 C 231.471 45.162,231.696 45.089,231.833 45.000 C 232.056 44.856,232.056 44.838,231.833 44.838 C 231.696 44.838,231.471 44.911,231.333 45.000 M107.821 45.208 C 107.814 45.323,107.783 45.548,107.752 45.708 C 107.721 45.869,107.765 46.000,107.848 46.000 C 107.932 46.000,108.000 45.775,108.000 45.500 C 108.000 45.022,107.847 44.774,107.821 45.208 M158.946 45.567 C 158.897 45.696,158.961 45.939,159.089 46.109 C 159.306 46.394,159.323 46.395,159.328 46.125 C 159.331 45.965,159.261 45.833,159.172 45.833 C 159.083 45.833,159.054 45.721,159.106 45.583 C 159.159 45.446,159.165 45.333,159.119 45.333 C 159.073 45.333,158.995 45.439,158.946 45.567 M186.019 45.695 C 186.009 45.848,185.957 46.110,185.904 46.278 C 185.813 46.567,185.818 46.568,185.999 46.286 C 186.103 46.123,186.155 45.861,186.114 45.703 C 186.046 45.445,186.037 45.444,186.019 45.695 M27.667 45.725 C 27.667 45.739,27.885 45.957,28.151 46.208 C 28.505 46.543,28.615 46.587,28.559 46.374 C 28.503 46.160,27.667 45.552,27.667 45.725 M228.250 45.833 C 227.789 45.951,227.782 45.962,228.167 45.978 C 228.396 45.987,228.696 45.922,228.833 45.833 C 229.117 45.650,228.970 45.650,228.250 45.833 M24.068 46.426 L 23.583 46.851 24.042 46.649 C 24.294 46.538,24.500 46.389,24.500 46.319 C 24.500 46.249,24.631 46.157,24.792 46.115 C 25.029 46.053,25.033 46.035,24.818 46.019 C 24.671 46.009,24.334 46.191,24.068 46.426 M152.253 47.851 C 152.349 48.349,152.500 48.463,152.500 48.038 C 152.500 47.844,152.429 47.642,152.342 47.589 C 152.254 47.535,152.215 47.651,152.253 47.851 M18.202 47.933 C 18.020 48.131,18.121 48.163,18.868 48.142 C 19.433 48.126,19.570 48.090,19.250 48.044 C 18.975 48.003,18.675 47.910,18.583 47.835 C 18.492 47.761,18.320 47.805,18.202 47.933 M217.490 48.147 C 217.718 48.573,217.818 48.599,217.762 48.217 C 217.740 48.062,217.626 47.903,217.511 47.865 C 217.348 47.810,217.343 47.873,217.490 48.147 M20.211 48.120 C 20.464 48.158,20.839 48.157,21.044 48.117 C 21.249 48.078,21.042 48.046,20.583 48.048 C 20.125 48.049,19.957 48.081,20.211 48.120 M21.875 48.119 C 22.127 48.158,22.540 48.158,22.792 48.119 C 23.044 48.081,22.837 48.050,22.333 48.050 C 21.829 48.050,21.623 48.081,21.875 48.119 M24.600 48.128 C 24.701 48.195,24.826 48.362,24.879 48.500 C 24.942 48.667,24.978 48.626,24.987 48.375 C 24.996 48.123,24.904 48.001,24.708 48.003 C 24.528 48.004,24.487 48.052,24.600 48.128 M39.147 49.130 C 39.092 49.461,39.116 49.617,39.209 49.524 C 39.293 49.440,39.334 49.194,39.300 48.978 C 39.247 48.644,39.224 48.667,39.147 49.130 M192.417 49.167 C 192.354 49.364,192.340 49.563,192.386 49.608 C 192.432 49.654,192.521 49.530,192.583 49.333 C 192.646 49.136,192.660 48.937,192.614 48.892 C 192.568 48.846,192.479 48.970,192.417 49.167 M160.599 49.141 C 160.542 49.234,160.576 49.360,160.675 49.422 C 160.931 49.580,161.097 49.363,160.883 49.149 C 160.763 49.030,160.670 49.027,160.599 49.141 M267.013 49.296 C 267.006 49.413,267.188 49.580,267.417 49.667 C 267.646 49.754,267.833 49.902,267.833 49.996 C 267.833 50.090,268.246 50.582,268.750 51.091 C 269.254 51.599,269.667 51.976,269.667 51.928 C 269.667 51.709,267.625 49.500,267.423 49.500 C 267.297 49.500,267.157 49.406,267.110 49.292 C 267.044 49.128,267.024 49.129,267.013 49.296 M30.426 49.984 C 30.116 50.105,30.118 50.115,30.467 50.206 C 30.716 50.271,30.833 50.227,30.833 50.068 C 30.833 49.939,30.815 49.839,30.792 49.845 C 30.769 49.851,30.604 49.914,30.426 49.984 M39.131 50.333 C 39.091 50.608,39.120 50.833,39.196 50.833 C 39.271 50.833,39.333 50.608,39.333 50.333 C 39.333 50.058,39.304 49.833,39.269 49.833 C 39.233 49.833,39.171 50.058,39.131 50.333 M230.667 49.948 C 230.667 50.040,230.817 50.251,231.000 50.417 C 231.183 50.583,231.333 50.643,231.333 50.552 C 231.333 50.460,231.183 50.249,231.000 50.083 C 230.817 49.917,230.667 49.857,230.667 49.948 M278.839 51.102 C 278.846 51.311,279.332 51.931,279.339 51.740 C 279.342 51.654,279.449 51.771,279.576 52.000 C 279.703 52.229,279.869 52.418,279.945 52.419 C 280.021 52.421,280.196 52.482,280.333 52.556 C 280.471 52.630,280.395 52.517,280.165 52.304 C 279.934 52.091,279.541 51.700,279.290 51.436 C 279.039 51.171,278.836 51.021,278.839 51.102 M26.435 51.570 C 26.485 51.701,26.643 51.853,26.787 51.908 C 27.220 52.074,27.204 51.896,26.760 51.605 C 26.430 51.389,26.362 51.382,26.435 51.570 M69.833 51.667 C 69.833 51.776,74.413 51.833,83.240 51.833 C 91.998 51.833,96.683 51.776,96.750 51.667 C 96.818 51.556,92.307 51.500,83.343 51.500 C 74.448 51.500,69.833 51.557,69.833 51.667 M221.500 51.750 C 221.614 51.887,221.830 51.991,221.979 51.981 C 222.208 51.964,222.204 51.949,221.958 51.885 C 221.798 51.843,221.667 51.739,221.667 51.654 C 221.667 51.570,221.582 51.500,221.480 51.500 C 221.350 51.500,221.357 51.577,221.500 51.750 M178.250 52.167 C 178.748 52.381,179.165 52.381,178.833 52.167 C 178.696 52.078,178.433 52.009,178.250 52.014 L 177.917 52.023 178.250 52.167 M106.821 52.375 C 106.751 52.611,106.709 53.200,106.773 53.046 C 106.820 52.934,106.846 52.792,106.832 52.731 C 106.817 52.670,106.905 52.557,107.027 52.480 C 107.194 52.374,107.197 52.338,107.042 52.336 C 106.927 52.334,106.828 52.352,106.821 52.375 M222.667 52.618 C 222.667 52.930,223.465 53.361,223.601 53.123 C 223.667 53.010,223.657 52.974,223.581 53.043 C 223.504 53.113,223.267 53.006,223.054 52.806 C 222.841 52.606,222.667 52.521,222.667 52.618 M0.208 53.757 C 0.208 54.244,0.312 54.210,0.412 53.689 C 0.450 53.493,0.420 53.333,0.345 53.333 C 0.270 53.333,0.208 53.524,0.208 53.757 M235.292 54.037 C 235.498 54.136,235.667 54.281,235.667 54.359 C 235.667 54.436,235.760 54.498,235.875 54.494 C 235.990 54.491,235.906 54.341,235.690 54.161 C 235.473 53.981,235.211 53.838,235.107 53.845 C 235.002 53.851,235.085 53.937,235.292 54.037 M272.000 54.099 C 272.000 54.346,272.714 55.167,272.928 55.167 C 273.059 55.167,273.167 55.279,273.167 55.417 C 273.167 55.554,273.273 55.667,273.403 55.667 C 273.533 55.667,273.672 55.760,273.713 55.875 C 273.754 55.990,273.833 56.043,273.887 55.993 C 273.942 55.943,273.540 55.474,272.993 54.951 C 272.447 54.428,272.000 54.045,272.000 54.099 M41.016 56.131 C 41.124 56.303,41.314 56.444,41.439 56.444 C 41.748 56.444,41.731 56.414,41.244 56.094 C 40.837 55.828,40.828 55.830,41.016 56.131 M103.417 56.500 C 103.473 56.592,103.403 56.667,103.260 56.667 C 103.117 56.667,103.000 56.744,103.000 56.839 C 103.000 56.955,103.110 56.953,103.338 56.831 C 103.624 56.678,103.665 56.333,103.397 56.333 C 103.351 56.333,103.360 56.408,103.417 56.500 M284.936 57.074 C 284.993 57.222,285.182 57.419,285.358 57.513 C 285.533 57.607,285.640 57.742,285.595 57.814 C 285.551 57.886,285.624 57.944,285.757 57.944 C 286.065 57.944,286.095 57.996,285.417 57.357 C 285.096 57.054,284.880 56.927,284.936 57.074 M5.273 58.071 C 5.344 58.611,5.445 58.777,5.607 58.615 C 5.666 58.556,5.637 58.412,5.542 58.296 C 5.447 58.179,5.333 57.971,5.289 57.833 C 5.246 57.696,5.238 57.803,5.273 58.071 M281.506 58.458 C 278.572 58.486,276.529 58.571,276.431 58.669 C 276.323 58.777,277.991 58.833,281.282 58.833 C 285.587 58.833,286.311 58.798,286.394 58.583 C 286.446 58.446,286.473 58.351,286.453 58.372 C 286.433 58.394,284.207 58.433,281.506 58.458 M69.750 58.667 C 69.682 58.777,74.262 58.832,83.365 58.831 C 92.283 58.829,96.996 58.772,96.833 58.667 C 96.486 58.442,69.889 58.442,69.750 58.667 M125.890 58.628 C 125.784 58.695,126.871 58.730,128.307 58.706 C 132.540 58.634,132.985 58.565,129.417 58.534 C 127.583 58.518,125.996 58.560,125.890 58.628 M230.000 58.667 C 230.000 58.774,231.864 58.833,235.260 58.833 C 238.724 58.833,240.485 58.776,240.417 58.667 C 240.352 58.561,238.415 58.500,235.157 58.500 C 231.830 58.500,230.000 58.559,230.000 58.667 M246.083 58.667 C 246.016 58.776,247.224 58.833,249.583 58.833 C 251.943 58.833,253.151 58.776,253.083 58.667 C 253.020 58.564,251.668 58.500,249.583 58.500 C 247.498 58.500,246.147 58.564,246.083 58.667 M309.000 58.667 C 309.000 58.773,310.290 58.832,312.542 58.831 C 314.890 58.829,315.999 58.774,315.833 58.667 C 315.493 58.447,309.000 58.447,309.000 58.667 M377.442 58.625 C 377.399 58.694,378.426 58.731,379.724 58.707 C 384.019 58.629,384.461 58.567,380.968 58.533 C 379.071 58.515,377.485 58.556,377.442 58.625 M5.782 59.273 C 5.604 59.451,5.645 59.700,5.833 59.583 C 5.925 59.527,6.000 59.572,6.000 59.685 C 6.000 59.797,6.044 59.845,6.099 59.790 C 6.153 59.736,6.130 59.571,6.048 59.425 C 5.965 59.278,5.846 59.209,5.782 59.273 M8.019 59.445 C 8.009 59.552,7.951 59.777,7.892 59.945 C 7.808 60.182,7.831 60.207,7.991 60.059 C 8.105 59.955,8.162 59.730,8.118 59.559 C 8.075 59.389,8.030 59.338,8.019 59.445 M54.500 60.833 C 54.362 60.922,54.315 60.996,54.395 60.997 C 54.475 60.999,54.438 61.127,54.312 61.282 C 54.159 61.471,54.152 61.523,54.291 61.439 C 54.477 61.328,54.914 60.663,54.798 60.669 C 54.771 60.671,54.637 60.744,54.500 60.833 M49.530 63.750 C 49.426 63.979,49.368 64.167,49.401 64.167 C 49.434 64.167,49.585 63.979,49.735 63.750 C 49.885 63.521,49.943 63.333,49.864 63.333 C 49.785 63.333,49.635 63.521,49.530 63.750 M50.111 68.208 C 49.943 68.384,49.837 68.559,49.876 68.598 C 49.915 68.637,50.083 68.518,50.250 68.333 C 50.641 67.901,50.514 67.787,50.111 68.208 M13.095 70.516 C 13.364 70.845,13.617 71.087,13.658 71.052 C 13.699 71.018,13.480 70.748,13.170 70.453 L 12.608 69.917 13.095 70.516 M15.671 72.282 C 15.898 72.437,16.126 72.626,16.179 72.703 C 16.314 72.898,17.031 73.018,16.911 72.825 C 16.858 72.738,16.736 72.667,16.641 72.667 C 16.547 72.667,16.279 72.517,16.045 72.333 C 15.812 72.150,15.540 72.000,15.440 72.000 C 15.341 72.000,15.445 72.127,15.671 72.282 M31.833 75.326 C 31.514 75.407,31.478 75.456,31.682 75.534 C 31.828 75.590,32.050 75.572,32.177 75.494 C 32.505 75.291,32.323 75.203,31.833 75.326 " stroke="none" fill="#e4bc04" fill-rule="evenodd"></path><path id="path2" d="M170.125 26.791 C 171.523 26.819,173.810 26.819,175.208 26.791 C 176.606 26.763,175.463 26.741,172.667 26.741 C 169.871 26.741,168.727 26.763,170.125 26.791 M46.128 40.621 C 46.428 40.658,46.878 40.657,47.128 40.619 C 47.378 40.581,47.133 40.551,46.583 40.552 C 46.033 40.553,45.828 40.584,46.128 40.621 M170.135 52.125 C 171.539 52.153,173.789 52.153,175.135 52.125 C 176.482 52.097,175.333 52.074,172.583 52.074 C 169.833 52.074,168.732 52.097,170.135 52.125 M49.067 69.524 C 48.752 69.880,48.752 69.881,49.125 69.685 C 49.331 69.577,49.500 69.416,49.500 69.327 C 49.500 69.091,49.420 69.127,49.067 69.524 M43.083 74.593 C 42.773 74.857,42.715 74.955,42.930 74.851 C 43.240 74.703,43.802 74.165,43.645 74.167 C 43.611 74.168,43.358 74.359,43.083 74.593 " stroke="none" fill="#e8c404" fill-rule="evenodd"></path><path id="path3" d="M170.125 26.791 C 171.523 26.819,173.810 26.819,175.208 26.791 C 176.606 26.763,175.463 26.741,172.667 26.741 C 169.871 26.741,168.727 26.763,170.125 26.791 M46.128 40.621 C 46.428 40.658,46.878 40.657,47.128 40.619 C 47.378 40.581,47.133 40.551,46.583 40.552 C 46.033 40.553,45.828 40.584,46.128 40.621 M170.135 52.125 C 171.539 52.153,173.789 52.153,175.135 52.125 C 176.482 52.097,175.333 52.074,172.583 52.074 C 169.833 52.074,168.732 52.097,170.135 52.125 M49.067 69.524 C 48.752 69.880,48.752 69.881,49.125 69.685 C 49.331 69.577,49.500 69.416,49.500 69.327 C 49.500 69.091,49.420 69.127,49.067 69.524 M43.083 74.593 C 42.773 74.857,42.715 74.955,42.930 74.851 C 43.240 74.703,43.802 74.165,43.645 74.167 C 43.611 74.168,43.358 74.359,43.083 74.593 " stroke="none" fill="#e8c404" fill-rule="evenodd"></path><path id="path4" d="M170.125 26.791 C 171.523 26.819,173.810 26.819,175.208 26.791 C 176.606 26.763,175.463 26.741,172.667 26.741 C 169.871 26.741,168.727 26.763,170.125 26.791 M46.128 40.621 C 46.428 40.658,46.878 40.657,47.128 40.619 C 47.378 40.581,47.133 40.551,46.583 40.552 C 46.033 40.553,45.828 40.584,46.128 40.621 M170.135 52.125 C 171.539 52.153,173.789 52.153,175.135 52.125 C 176.482 52.097,175.333 52.074,172.583 52.074 C 169.833 52.074,168.732 52.097,170.135 52.125 M49.067 69.524 C 48.752 69.880,48.752 69.881,49.125 69.685 C 49.331 69.577,49.500 69.416,49.500 69.327 C 49.500 69.091,49.420 69.127,49.067 69.524 M43.083 74.593 C 42.773 74.857,42.715 74.955,42.930 74.851 C 43.240 74.703,43.802 74.165,43.645 74.167 C 43.611 74.168,43.358 74.359,43.083 74.593 " stroke="none" fill="#e8c404" fill-rule="evenodd"></path></g></svg>